<svg xmlns="http://www.w3.org/2000/svg" viewBox="0 0 1410 1115">
<path fill="#5AE712" opacity="1.000000" stroke="none" 
	d="
M984.420166,503.763031 
	C984.559204,503.947632 984.698242,504.132263 984.792358,504.976898 
	C984.915466,508.659332 985.083496,511.681763 985.134705,514.874146 
	C985.017883,515.044067 984.632690,515.191528 984.468140,515.539795 
	C984.185059,517.866760 983.964783,519.845520 983.963318,521.824341 
	C983.941895,550.677673 983.942749,579.531006 983.967224,608.384338 
	C983.968750,610.195862 984.209656,612.007141 984.535767,614.175049 
	C984.868286,614.766296 985.004395,615.001099 985.024536,615.586304 
	C984.952393,618.959717 984.996216,621.982666 985.040039,625.005676 
	C984.720520,626.370972 984.135132,627.734253 984.124512,629.101990 
	C984.053101,638.308655 984.103577,647.516235 984.365295,657.523621 
	C984.694885,661.170105 984.773804,664.016541 984.583862,667.120361 
	C984.223328,668.611816 984.131592,669.845825 984.014160,671.539124 
	C984.007812,697.966797 984.027222,723.935181 984.046814,750.353638 
	C984.105835,752.907654 984.164673,755.011475 984.306885,757.481323 
	C984.425964,760.623291 984.461670,763.399292 984.497437,766.175232 
	C984.497437,777.113770 984.497437,788.052307 984.497437,799.035217 
	C999.811523,804.260620 1002.626770,819.852112 992.769348,830.843140 
	C991.916260,831.794373 991.770447,834.216858 992.348328,835.471069 
	C994.995056,841.215332 998.531128,846.592346 1000.755859,852.476257 
	C1002.889893,858.120544 1004.559326,864.161560 1005.071655,870.144836 
	C1005.794128,878.582581 1005.210144,887.128113 1005.291565,895.626587 
	C1005.327698,899.400940 1003.695007,901.066467 999.876160,901.049011 
	C986.710144,900.988831 973.543518,901.050049 960.377197,901.091919 
	C956.669312,901.103699 954.837280,899.352173 954.856079,895.614319 
	C954.906311,885.615112 953.599487,875.376404 955.350098,865.687927 
	C956.900513,857.107483 961.813049,849.128723 965.302490,840.910339 
	C965.883423,839.542114 966.742371,838.284668 967.535156,837.015015 
	C969.280273,834.219971 969.400818,832.125671 966.835022,829.210266 
	C958.603760,819.857422 962.007629,805.519958 973.254333,800.291321 
	C974.265076,799.821472 975.165894,799.115112 976.343201,798.108948 
	C976.647278,797.521545 976.607788,797.378662 976.450256,797.270874 
	C976.396606,788.697083 976.342896,780.123352 976.254028,770.698975 
	C976.115234,767.033569 976.011658,764.218750 976.025513,760.917908 
	C976.181702,756.608459 976.243713,752.784973 976.255249,748.961426 
	C976.338257,721.532410 976.411072,694.103455 976.613770,666.339111 
	C976.713806,665.005554 976.687256,664.007324 976.523438,662.642456 
	C976.190918,659.203735 975.995728,656.131653 975.846069,652.588013 
	C975.630371,644.668945 975.369019,637.221313 975.310059,629.487427 
	C975.500977,626.058533 975.489441,622.915833 975.645081,619.420654 
	C975.977356,616.756775 976.283325,614.445618 976.286255,612.134094 
	C976.325134,581.815735 976.338074,551.497314 976.305542,521.178955 
	C976.301636,517.536499 975.992554,513.894287 976.048584,509.915833 
	C975.879639,506.465240 975.486938,503.350800 975.394897,500.112396 
	C975.901733,499.920990 976.107788,499.853546 976.430054,499.665466 
	C976.511475,499.126617 976.476624,498.708344 976.369263,497.808472 
	C976.296814,483.985321 976.296814,470.643799 976.296814,456.770874 
	C966.067200,461.598999 956.948547,465.965576 947.775574,470.214874 
	C938.310547,474.599457 938.287415,474.549500 939.246460,485.175476 
	C938.758850,486.947357 938.456543,488.398773 937.825439,489.773987 
	C936.927673,487.973297 936.358826,486.248840 935.791260,484.528473 
	C932.270630,486.512329 931.950439,496.331390 935.460571,503.468964 
	C936.529358,499.686676 937.483582,496.309784 938.593872,493.101471 
	C938.971008,493.670746 939.192078,494.071472 939.302124,494.963318 
	C939.161011,519.934631 938.909058,544.417725 939.231750,568.893311 
	C939.332703,576.554504 936.710083,581.408752 929.817505,584.751099 
	C893.732727,602.249207 857.902466,620.279541 821.670593,637.464600 
	C799.435974,648.010620 776.980347,658.262939 754.013428,667.051514 
	C721.455261,679.510315 688.122253,679.032227 655.844971,666.209839 
	C629.125000,655.595154 603.025696,643.318298 577.073608,630.895935 
	C545.564148,615.813416 514.511475,599.777588 483.227814,584.221375 
	C477.337921,581.292542 474.800293,576.797485 474.871552,570.208252 
	C475.089447,550.058716 475.095734,529.905945 475.022888,509.755005 
	C475.004456,504.656342 474.384216,499.559906 474.246277,494.153442 
	C474.389465,490.865356 474.326904,487.886230 474.264374,484.907104 
	C474.494598,481.777344 475.084198,478.613220 474.789917,475.533569 
	C474.660156,474.174957 472.984924,472.463623 471.589355,471.800812 
	C447.071106,460.155304 422.513977,448.590546 397.911194,437.124359 
	C368.951721,423.627686 339.894714,410.338409 311.031067,396.640961 
	C308.500458,395.440063 305.966034,392.101288 305.423859,389.361603 
	C304.620361,385.301514 308.090668,383.057098 311.691498,381.455688 
	C351.711151,363.657532 391.703705,345.798401 431.705414,327.959930 
	C480.511719,306.195129 529.307373,284.406281 578.131042,262.680542 
	C618.137878,244.878143 658.192688,227.183426 698.189697,209.359146 
	C703.898132,206.815201 709.272034,206.808014 715.010254,209.365326 
	C771.576904,234.574783 828.187805,259.684662 884.787659,284.819489 
	C941.531616,310.018311 998.287170,335.190948 1055.015625,360.424469 
	C1070.836670,367.461853 1086.569214,374.697968 1102.367310,381.787445 
	C1105.823608,383.338531 1109.148438,384.867645 1109.111450,389.431061 
	C1109.074707,393.957977 1106.174194,396.149658 1102.466553,397.872711 
	C1064.885620,415.338013 1027.320923,432.838470 989.773071,450.374878 
	C988.006287,451.200012 986.440857,452.456268 984.481201,454.234558 
	C984.260498,471.225922 984.340332,487.494476 984.420166,503.763031 
M605.844116,257.028198 
	C611.403564,256.676544 616.163330,254.774551 620.243835,250.443039 
	C613.756348,246.927292 605.803589,250.749832 604.160095,256.965851 
	C598.417969,255.942780 593.191528,256.459229 589.027710,261.605286 
	C594.416382,263.874695 602.106812,261.474213 605.844116,257.028198 
M681.154480,220.968506 
	C666.184753,225.272614 651.695251,230.661728 638.784241,239.643906 
	C638.155029,240.081650 637.372314,240.321396 636.634583,240.576843 
	C632.724487,241.930817 628.736511,243.098373 624.943848,244.723328 
	C624.098816,245.085373 623.930298,247.026489 622.860901,249.731598 
	C626.869751,248.548187 629.486755,248.139175 631.770752,247.039032 
	C642.168152,242.030991 652.384338,236.640121 662.847290,231.777756 
	C667.862000,229.447266 673.397339,228.245972 678.447327,225.977554 
	C680.060974,225.252670 680.872253,222.741486 682.790955,220.887650 
	C684.737671,220.720901 686.684753,220.413910 688.631104,220.417938 
	C692.179382,220.425278 697.783875,215.955460 698.236206,211.712509 
	C692.707886,214.288818 687.578796,216.642883 682.506714,219.113892 
	C682.115601,219.304443 682.125549,220.318268 681.154480,220.968506 
M805.657959,530.328003 
	C807.840820,530.323425 810.316406,530.986633 812.149292,530.183411 
	C816.815735,528.138489 821.053772,525.115540 825.720886,523.072571 
	C833.560303,519.640930 841.664001,516.815308 849.525208,513.429932 
	C852.983887,511.940430 856.111328,509.687012 859.406738,507.811340 
	C861.134705,506.827820 862.802734,505.575562 864.668884,505.030273 
	C869.337585,503.666107 874.560059,503.554504 876.949829,498.036774 
	C877.260376,497.319763 879.201721,496.792206 880.230408,496.991028 
	C885.176758,497.946930 888.278259,495.107727 891.490112,492.031738 
	C889.786621,491.371826 888.116028,491.074463 886.768616,491.602264 
	C878.817383,494.717072 870.816467,497.752808 863.066284,501.323029 
	C847.683228,508.409424 832.423279,515.766052 817.177490,523.145447 
	C812.987976,525.173340 809.028931,527.677490 804.159363,529.973694 
	C801.198608,530.820129 798.118347,531.400818 795.338867,532.650452 
	C794.300781,533.117249 793.964355,535.144775 793.307983,536.460693 
	C794.726990,536.802246 796.743469,537.908752 797.459106,537.349792 
	C800.210144,535.201111 802.544434,532.518860 805.657959,530.328003 
M978.028015,754.977234 
	C978.028015,769.128052 978.028015,783.278931 978.028015,797.429749 
	C978.665527,797.560181 979.303101,797.690613 979.940613,797.821045 
	C980.836243,796.249023 982.433167,794.709412 982.507507,793.099487 
	C982.849792,785.683655 982.892700,778.246643 982.796814,770.820374 
	C982.724487,765.220825 982.279541,759.626160 982.004333,753.088318 
	C982.008545,714.261475 982.014771,675.434692 982.009888,636.607849 
	C982.009705,635.111511 982.113770,633.562378 981.757263,632.141174 
	C981.580383,631.435852 980.535095,630.731018 979.744019,630.499329 
	C979.408264,630.401001 978.400452,631.446838 978.253845,632.097839 
	C977.966064,633.375671 978.015625,634.741089 978.015564,636.070312 
	C978.014221,675.396973 978.023926,714.723572 978.028015,754.977234 
M647.455200,543.228088 
	C664.896606,551.541443 682.418335,559.692627 699.729187,568.269531 
	C704.743408,570.753906 708.917542,570.535583 713.865295,568.230225 
	C758.390198,547.484253 803.045349,527.018066 847.580017,506.293091 
	C928.802917,468.494720 1009.970581,430.577576 1091.153442,392.693237 
	C1092.732910,391.956146 1094.216675,391.013641 1096.482910,389.758240 
	C1092.749878,387.913452 1089.862183,386.355225 1086.872070,385.027924 
	C1011.695374,351.658752 936.495300,318.342346 861.327026,284.954315 
	C814.604553,264.201263 767.749146,243.731277 721.362427,222.250778 
	C710.537537,217.238037 701.964172,217.758179 691.472351,222.502899 
	C635.632019,247.755676 579.466736,272.289032 523.468140,297.193298 
	C456.981812,326.761780 390.549591,356.452057 324.100189,386.103638 
	C322.206757,386.948486 320.384033,387.951813 317.709381,389.291443 
	C327.185394,393.662292 335.650269,397.514923 344.071869,401.459869 
	C393.376312,424.555725 442.648254,447.721100 491.974548,470.770081 
	C543.550415,494.870270 595.175354,518.865479 647.455200,543.228088 
M556.963257,511.442932 
	C532.722778,500.232605 508.482239,489.022278 483.486969,477.462891 
	C483.334473,480.306702 483.159637,482.085419 483.155609,483.864502 
	C483.090820,512.360779 483.151215,540.857971 482.891541,569.352356 
	C482.851318,573.763062 484.510651,575.930481 488.237488,577.745972 
	C500.210999,583.578857 511.936554,589.925659 523.956787,595.656921 
	C564.979797,615.216919 605.911865,634.983521 647.235535,653.891174 
	C668.989258,663.844666 692.143127,668.677002 716.305115,666.727356 
	C735.632324,665.167786 754.008911,659.640259 771.515625,651.690979 
	C801.078308,638.267456 830.388367,624.280823 859.687012,610.284729 
	C881.471619,599.877991 903.074646,589.090881 924.746704,578.449158 
	C928.028381,576.837708 931.106262,575.466492 931.076233,570.620239 
	C930.898315,541.958557 931.029297,513.295044 931.032471,484.632172 
	C931.032654,482.724060 930.836304,480.815948 930.689331,478.142609 
	C927.270691,479.571106 924.514160,480.615479 921.847656,481.853790 
	C893.311951,495.106018 864.809387,508.429626 836.260681,521.653625 
	C796.208496,540.206177 756.111572,558.662048 716.068359,577.233826 
	C709.589844,580.238525 703.460449,580.343750 696.891113,577.242004 
	C650.510864,555.343567 604.056580,533.602173 556.963257,511.442932 
M975.633850,873.592285 
	C975.631165,873.092407 975.596008,872.590210 975.630981,872.092957 
	C975.875610,868.614197 974.574219,863.629211 979.813354,863.489319 
	C985.564697,863.335693 984.334290,868.541504 984.400024,872.175537 
	C984.522217,878.930786 984.435120,885.689819 984.435120,892.340759 
	C989.111694,892.340759 992.850403,892.340759 997.126831,892.340759 
	C997.126831,885.629395 997.637756,879.263489 996.978149,873.021301 
	C996.361145,867.181885 995.095947,861.250488 993.032104,855.767517 
	C990.758911,849.728149 987.294800,844.130188 984.264893,838.384521 
	C982.069824,834.222107 978.920776,834.145874 976.615784,838.320374 
	C973.074158,844.734192 969.643127,851.214844 966.365845,857.767517 
	C960.743103,869.010193 964.510254,880.872375 963.427979,892.584229 
	C967.768250,892.584229 971.230591,892.584229 975.642822,892.584229 
	C975.642822,886.448181 975.642822,880.507263 975.633850,873.592285 
M363.214325,362.449432 
	C361.905548,362.490295 360.493073,362.223328 359.305237,362.623322 
	C352.900452,364.780212 348.149841,370.656189 340.843781,370.874542 
	C340.424286,370.887085 339.877838,371.316864 339.638245,371.705261 
	C339.154083,372.490234 338.297882,373.768951 338.568481,374.146545 
	C339.142181,374.947174 340.315735,375.674408 341.288086,375.737061 
	C342.353668,375.805725 343.507172,375.175964 344.558044,374.706512 
	C361.008148,367.357483 377.417633,359.916718 393.899536,352.639923 
	C407.091949,346.815491 420.395508,341.243011 433.599121,335.443420 
	C440.993408,332.195526 448.292938,328.730713 455.602570,325.294250 
	C456.059845,325.079285 456.232483,324.258911 457.477570,322.060150 
	C453.365540,322.432129 450.333740,322.197876 447.662170,323.068695 
	C443.771179,324.336945 440.160889,326.449127 436.393219,328.116333 
	C423.513824,333.815643 410.591339,339.418274 397.737549,345.174500 
	C388.873932,349.143768 380.055878,353.221313 371.305542,357.433380 
	C368.668457,358.702759 366.326721,360.585571 363.214325,362.449432 
M978.005005,554.500000 
	C978.016296,575.320984 978.005005,596.142029 978.080383,616.962830 
	C978.086670,618.702698 978.676941,620.440491 978.995911,622.179260 
	C980.998657,617.724854 982.810242,613.518494 982.846313,609.296875 
	C983.097046,579.983154 982.982361,550.666199 982.970825,521.350281 
	C982.970154,519.687744 983.205872,517.898865 982.678406,516.398376 
	C982.153625,514.905518 980.804504,513.702454 979.816895,512.372314 
	C979.220886,513.755554 978.123596,515.132996 978.107422,516.523010 
	C977.963562,528.847412 978.011230,541.174011 978.005005,554.500000 
M755.205566,664.779114 
	C773.697083,658.256714 791.503662,650.224915 809.043030,640.996521 
	C806.938660,637.221375 804.620544,638.526245 802.491150,639.795776 
	C797.844604,642.566345 793.485962,645.919922 788.614014,648.184021 
	C783.819153,650.412231 778.474548,651.422668 773.478333,653.259155 
	C759.161377,658.521790 745.084778,664.729187 729.913452,667.020447 
	C719.192139,668.639648 708.395020,671.574402 697.384155,668.610596 
	C696.112854,668.268433 694.708618,667.899170 693.464600,668.113953 
	C692.035828,668.360474 690.716919,669.243713 689.350342,669.850464 
	C690.523315,670.804810 691.618408,672.453247 692.882568,672.595093 
	C698.806091,673.259888 704.948853,674.602539 710.695801,673.694275 
	C725.369141,671.375427 739.873413,667.986938 755.205566,664.779114 
M524.989685,288.389832 
	C518.479492,291.363647 511.969299,294.337494 505.265656,297.399689 
	C507.084503,300.951782 509.264313,301.510803 512.106262,299.939758 
	C515.002380,298.338837 517.705261,296.020569 520.803162,295.225433 
	C528.398376,293.276031 534.440369,287.980011 542.261047,286.316833 
	C548.152893,285.063782 553.647949,281.832123 559.238098,279.301147 
	C566.321777,276.094025 573.322876,272.704468 580.694031,269.236176 
	C580.238708,267.578430 579.830383,266.091858 579.353027,264.353912 
	C561.132935,272.422729 543.413269,280.269928 524.989685,288.389832 
M880.794495,604.068909 
	C875.604248,605.995300 870.310791,607.686218 865.248291,609.904297 
	C857.979553,613.088928 850.863586,616.625427 843.710693,620.070496 
	C834.463257,624.524475 825.196655,628.944275 816.065063,633.626343 
	C814.754822,634.298157 814.154541,636.354736 813.225708,637.770508 
	C817.548584,636.995239 821.016174,635.874695 824.273193,634.314819 
	C842.766541,625.457642 861.223572,616.523926 879.628357,607.484680 
	C880.549988,607.031982 880.869934,605.354248 880.794495,604.068909 
M980.498352,827.156067 
	C986.192749,826.331848 989.380737,823.503296 990.003906,818.722168 
	C990.699036,813.388611 987.040039,808.438477 981.705688,807.495667 
	C977.164551,806.692993 972.029114,810.359131 971.011841,815.129883 
	C969.721558,821.181091 972.931824,825.628052 980.498352,827.156067 
M1032.834839,422.255768 
	C1027.014282,425.074615 1021.193726,427.893433 1015.373169,430.712280 
	C1015.354980,431.222687 1015.336792,431.733093 1015.318604,432.243500 
	C1016.815430,432.625305 1018.406250,433.525055 1019.788208,433.274170 
	C1022.186218,432.838654 1024.520142,431.834991 1026.766479,430.817108 
	C1035.450195,426.882446 1044.122070,422.917999 1052.729370,418.820038 
	C1056.760742,416.900665 1061.083252,415.190552 1064.448486,412.392944 
	C1067.492920,409.862000 1069.106323,405.298859 1074.741455,409.211731 
	C1074.137939,404.739014 1072.805298,403.761841 1069.319824,404.975952 
	C1065.058716,406.460297 1062.153198,409.807770 1057.182007,410.949707 
	C1048.890015,412.854431 1041.369995,418.120880 1032.834839,422.255768 
M977.998962,462.753387 
	C977.998962,473.571625 977.998962,484.389832 977.998962,495.208069 
	C978.709229,495.323700 979.419556,495.439331 980.129822,495.554962 
	C980.752686,493.923126 981.898987,492.295685 981.912781,490.658691 
	C981.998779,480.427765 982.030212,470.187866 981.679993,459.964661 
	C981.439392,452.940552 983.055298,450.338928 989.892761,447.886749 
	C992.024475,447.122223 993.848694,445.500397 995.813660,444.271027 
	C995.576843,443.568909 995.339966,442.866821 995.103088,442.164734 
	C992.757141,442.525848 990.161804,442.367493 988.114258,443.350281 
	C982.977661,445.815796 978.088928,448.797577 974.084534,451.025085 
	C975.329102,454.461914 976.663757,458.147552 977.998962,462.753387 
M760.508057,548.979980 
	C752.183044,552.970337 743.858093,556.960693 735.275940,561.074341 
	C737.205505,564.429260 739.530945,564.174927 742.220520,562.926514 
	C756.831543,556.144287 771.466370,549.413147 786.069824,542.614807 
	C786.973694,542.193970 787.680298,541.349304 788.478638,540.701843 
	C786.668091,539.568726 784.999817,539.140381 783.682922,539.639404 
	C776.127441,542.502563 768.655457,545.585876 760.508057,548.979980 
M935.818176,506.846619 
	C935.712646,506.718414 935.628479,506.556610 935.495239,506.472076 
	C935.377441,506.397308 935.095764,506.348999 935.072998,506.390747 
	C934.708618,507.059143 934.089172,507.737885 934.074524,508.425873 
	C933.688843,526.493469 933.335388,544.562012 933.118042,562.632141 
	C933.106262,563.614685 934.323730,564.612061 934.968933,565.602539 
	C935.643677,564.469666 936.917175,563.329773 936.903870,562.205017 
	C936.688110,543.971436 936.308960,525.739685 935.818176,506.846619 
M717.540100,574.099060 
	C722.279785,570.099243 729.866760,571.112305 734.444153,564.860718 
	C727.865784,564.272644 722.669678,564.674133 718.837463,569.583435 
	C718.466187,570.059021 717.821594,570.509888 717.242920,570.606140 
	C710.278015,571.764709 703.314392,573.578064 696.337463,570.478821 
	C695.553711,570.130676 694.366089,570.691528 693.133972,570.863098 
	C697.580566,578.237244 709.893921,578.195435 717.540100,574.099060 
M316.336151,390.167847 
	C315.174133,387.689423 315.511230,386.652222 318.621979,385.790192 
	C322.924438,384.597992 326.890289,382.191071 331.000305,380.304352 
	C330.934753,379.581543 330.869232,378.858734 330.803680,378.135925 
	C329.100769,377.907501 327.139771,377.022583 325.742554,377.571869 
	C321.286011,379.323792 316.940643,381.432709 312.756714,383.769623 
	C310.948761,384.779480 308.086395,387.510773 308.369720,388.044556 
	C309.759552,390.662750 311.752045,393.213501 314.144592,394.937225 
	C315.289307,395.761902 317.793304,394.699951 321.038971,394.343384 
	C318.688202,392.399902 317.698395,391.581604 316.336151,390.167847 
M757.126404,230.350601 
	C756.116455,231.092041 754.479492,231.696671 754.279175,232.614792 
	C754.092102,233.471710 755.216797,235.243256 756.142944,235.584564 
	C758.101074,236.306290 760.302490,236.386200 762.412048,236.670547 
	C763.351501,236.797180 765.051880,236.551865 765.148865,236.864975 
	C766.583374,241.496887 771.588562,240.966721 774.214905,243.315933 
	C778.520325,247.167175 781.782410,244.769028 785.758667,242.865005 
	C776.449890,238.785614 767.141113,234.706223 757.126404,230.350601 
M952.924805,465.499420 
	C954.602478,464.459686 956.447327,463.603394 957.881470,462.296326 
	C958.517700,461.716370 958.323914,460.225647 958.506836,459.148346 
	C957.482605,459.004425 956.201721,458.396759 955.478638,458.796997 
	C952.361633,460.522095 949.480164,462.672241 946.365601,464.402283 
	C944.757996,465.295197 942.862488,466.053436 941.061646,466.140717 
	C936.154480,466.378479 931.598999,469.116058 931.402039,472.783447 
	C931.333130,474.066010 932.617126,475.421204 933.283264,476.743225 
	C934.514771,476.015259 935.890930,475.448914 936.936523,474.513184 
	C937.953796,473.602814 938.392151,471.821869 939.502930,471.279358 
	C943.651428,469.253143 947.971497,467.578247 952.924805,465.499420 
M535.302612,499.178040 
	C542.371704,502.676117 543.184082,502.649963 546.575012,498.430420 
	C539.334290,495.060852 532.201782,491.741669 525.051453,488.414154 
	C522.714539,491.267761 522.588928,493.300873 526.090027,494.794647 
	C528.983582,496.029205 531.780640,497.489838 535.302612,499.178040 
M1094.637817,385.944489 
	C1098.058716,386.972687 1101.479614,388.000885 1104.900513,389.029083 
	C1105.187378,388.366852 1105.474365,387.704651 1105.761230,387.042419 
	C1103.489990,385.716553 1101.286865,384.251648 1098.931641,383.097137 
	C1095.318359,381.325958 1091.539673,379.889160 1087.944824,378.083954 
	C1084.751221,376.480164 1081.712646,374.592590 1077.653687,378.326691 
	C1083.571411,381.015839 1088.733398,383.361572 1094.637817,385.944489 
M732.672241,219.966522 
	C729.781372,218.003525 727.056335,218.102402 724.274353,220.417130 
	C732.982361,227.494202 744.505127,230.672058 748.593750,226.843704 
	C743.408264,224.593521 738.382324,222.412582 732.672241,219.966522 
M539.025696,606.317627 
	C536.784729,604.937622 534.602844,603.448181 532.290527,602.200378 
	C527.438171,599.581848 522.573242,596.970032 517.578918,594.644409 
	C516.535461,594.158508 514.910889,594.920715 513.554077,595.107727 
	C514.110352,596.095825 514.421021,597.495789 515.266052,597.999756 
	C518.674561,600.032349 522.068787,602.425537 525.808105,603.477356 
	C530.009827,604.659180 533.281860,609.892456 539.025696,606.317627 
M857.187927,278.980499 
	C858.271118,278.583832 859.354309,278.187134 861.928772,277.244385 
	C855.040344,273.968445 849.672913,271.223419 844.114624,268.943573 
	C843.069336,268.514801 841.184143,269.818817 839.892151,270.644867 
	C839.697510,270.769318 840.367004,273.344940 841.087402,273.624146 
	C846.124329,275.576324 851.279907,277.222626 857.187927,278.980499 
M879.224365,290.287933 
	C881.807312,291.405396 884.314697,292.850677 887.011902,293.472015 
	C888.029724,293.706512 889.486633,292.035431 890.743347,291.233002 
	C889.819519,290.634674 888.928711,289.975586 887.964905,289.450623 
	C885.931824,288.343170 883.407410,287.740112 881.890808,286.157501 
	C877.547913,281.625336 871.492615,280.793915 868.256470,285.173431 
	C871.737976,286.797760 875.140442,288.385162 879.224365,290.287933 
M384.554321,423.004272 
	C381.317413,421.529968 378.080475,420.055664 373.589386,418.010101 
	C374.339020,420.373688 374.346466,422.028534 375.098022,422.501862 
	C379.959747,425.563965 384.909821,428.512970 390.020660,431.128204 
	C390.975342,431.616699 392.788055,430.428345 394.204773,430.013824 
	C393.634857,428.821289 393.377686,427.109344 392.432404,426.540222 
	C390.199982,425.196075 387.640106,424.395782 384.554321,423.004272 
M623.305176,538.039978 
	C624.330322,539.084839 625.305298,540.185303 626.389709,541.164490 
	C630.097839,544.513123 633.059631,544.512634 636.424988,541.228394 
	C620.172119,532.425781 618.226624,530.336548 613.329834,534.843140 
	C616.495544,535.840698 619.552856,536.804077 623.305176,538.039978 
M896.371277,295.051605 
	C894.996582,297.172791 895.298950,297.712341 898.231140,298.797119 
	C902.134888,300.241272 905.963745,301.914368 909.932190,303.141876 
	C911.222656,303.541016 912.849854,302.851074 914.323059,302.659241 
	C913.623169,301.383942 913.184326,299.292908 912.179260,298.971313 
	C907.237793,297.390106 902.145874,296.278717 896.371277,295.051605 
M982.281311,331.659119 
	C981.789612,331.634979 981.297974,331.591858 980.806213,331.590271 
	C979.379272,331.585724 977.952332,331.597870 976.525391,331.603455 
	C977.523254,332.632751 978.351685,333.968964 979.551941,334.631592 
	C982.677368,336.357025 985.915100,337.909973 989.214783,339.273224 
	C990.508545,339.807709 992.115784,339.888062 993.524170,339.715820 
	C994.266541,339.625092 995.130676,338.648895 995.462280,337.869354 
	C995.629333,337.476807 994.874878,336.294312 994.291077,336.044861 
	C990.559326,334.450500 986.759216,333.016235 982.281311,331.659119 
M1005.971313,440.513428 
	C1007.466858,439.823975 1009.082031,439.307770 1010.417419,438.386139 
	C1011.359863,437.735748 1011.922791,436.535400 1012.655151,435.580566 
	C1011.390076,435.059723 1010.063416,434.003754 1008.874023,434.140594 
	C1006.981140,434.358398 1004.981262,435.070679 1003.388733,436.122162 
	C1001.304138,437.498627 999.571899,439.408661 997.688110,441.089203 
	C1000.209351,440.981567 1002.730652,440.873932 1005.971313,440.513428 
M643.969116,547.066711 
	C644.146057,548.026978 643.997681,549.462341 644.565735,549.851318 
	C645.857727,550.736023 647.937439,550.701172 648.923218,551.760315 
	C652.255310,555.340271 655.195923,553.759399 659.426819,551.415344 
	C654.020081,549.108704 650.379578,544.941223 643.969116,547.066711 
M664.980774,554.649536 
	C661.586853,557.188354 663.688293,558.726074 666.012878,560.174683 
	C672.423401,564.169678 673.909729,564.085144 676.366943,559.356384 
	C672.790894,557.730896 669.222534,556.108826 664.980774,554.649536 
M929.673584,582.237793 
	C936.220642,578.776123 936.452332,578.366028 934.255249,575.106506 
	C928.915283,578.298828 923.688782,581.423340 918.462280,584.547852 
	C918.748901,585.151672 919.035461,585.755554 919.322083,586.359375 
	C922.561523,585.116516 925.800903,583.873657 929.673584,582.237793 
M953.148193,320.737274 
	C956.248718,323.261780 959.349243,325.786285 962.449768,328.310822 
	C963.045654,327.990173 963.641602,327.669525 964.237488,327.348907 
	C964.057861,325.577057 964.449158,322.664001 963.596558,322.237549 
	C960.456238,320.666718 957.433899,317.149017 953.148193,320.737274 
M799.956177,253.730103 
	C801.114380,252.958771 802.272583,252.187439 804.203308,250.901611 
	C801.135864,249.742218 798.676819,249.386658 796.982361,248.056870 
	C793.047241,244.968750 791.208313,246.877655 789.162842,250.819138 
	C792.744080,251.893448 795.990173,252.867218 799.956177,253.730103 
M488.364349,579.678772 
	C485.319092,577.085815 482.273834,574.492920 478.684540,571.436768 
	C478.801331,573.365356 478.113800,576.321960 479.282532,577.926819 
	C480.994904,580.278442 483.941315,581.836548 486.603912,583.289124 
	C487.055817,583.535645 490.991211,583.130737 488.364349,579.678772 
M588.262817,628.935913 
	C585.845825,627.976379 583.473633,626.865295 580.989929,626.131531 
	C579.993225,625.837097 578.751709,626.371582 577.621582,626.528809 
	C578.153931,627.612488 578.405518,629.114136 579.273926,629.697571 
	C581.441895,631.154175 583.821533,632.370178 586.258240,633.317505 
	C587.295105,633.720703 588.686890,633.211060 589.917358,633.116272 
	C589.554688,631.874695 589.192017,630.633179 588.262817,628.935913 
M471.393707,317.954834 
	C471.825317,316.297180 472.256927,314.639526 472.688507,312.981873 
	C472.180267,312.763184 471.671997,312.544495 471.163757,312.325806 
	C467.733582,314.056396 464.303406,315.786957 460.873230,317.517548 
	C461.178284,318.408569 461.483337,319.299591 461.788391,320.190643 
	C464.761169,319.566223 467.733978,318.941833 471.393707,317.954834 
M401.407196,435.236359 
	C406.180634,440.530823 408.948456,440.887115 412.329285,436.642334 
	C407.265930,432.010345 404.408875,431.464722 401.407196,435.236359 
M436.317444,448.649017 
	C434.055481,451.158112 435.807556,452.613861 437.842194,453.675415 
	C440.676422,455.154205 443.746033,457.495087 446.872803,451.977295 
	C443.443939,450.713409 440.204254,449.519257 436.317444,448.649017 
M426.925690,446.497437 
	C428.649994,444.378265 428.202515,442.635620 425.632965,442.020111 
	C423.283264,441.457275 420.785675,441.511780 418.353241,441.294250 
	C418.612396,442.472015 418.531708,444.388336 419.192810,444.692505 
	C421.395172,445.705872 423.863708,446.140808 426.925690,446.497437 
M819.381104,257.848785 
	C815.946289,255.895935 812.678894,255.132675 809.657532,259.456177 
	C811.930908,260.521851 813.899048,261.845673 816.051453,262.304016 
	C817.358887,262.582458 819.062256,261.709930 820.342834,260.944519 
	C820.694763,260.734192 820.164795,259.048340 819.381104,257.848785 
M604.418884,641.715576 
	C605.525513,641.023621 606.632080,640.331665 608.700684,639.038147 
	C605.034058,637.165955 602.518616,635.710144 599.852539,634.624329 
	C599.045227,634.295471 597.820740,634.990967 596.787354,635.217285 
	C597.109680,636.222595 597.125000,637.639099 597.813843,638.153381 
	C599.631348,639.510376 601.741089,640.475830 604.418884,641.715576 
M1050.524536,362.495911 
	C1050.024902,363.434509 1049.525146,364.373138 1049.025513,365.311737 
	C1051.240723,366.204163 1053.395508,367.408844 1055.697144,367.854675 
	C1056.814819,368.071167 1058.207642,366.867218 1059.475830,366.306366 
	C1058.602661,365.331024 1057.906372,363.939636 1056.815674,363.475616 
	C1055.079346,362.736969 1053.079956,362.616241 1050.524536,362.495911 
M657.013916,664.252075 
	C658.456970,663.982178 659.900024,663.712341 661.343079,663.442444 
	C661.032837,662.747131 660.893921,661.871277 660.383484,661.387085 
	C657.855164,658.988953 652.031616,659.026917 648.513184,661.749634 
	C651.324219,662.605103 653.788574,663.355103 657.013916,664.252075 
M458.098267,458.103149 
	C456.610199,457.158051 455.212067,455.980194 453.599548,455.357178 
	C452.666382,454.996674 450.852417,455.138672 450.399170,455.759033 
	C449.820923,456.550537 449.749817,458.781799 450.276001,459.118958 
	C452.174225,460.335175 454.366394,461.244080 456.566132,461.714386 
	C457.023041,461.812073 457.987640,459.535339 458.098267,458.103149 
M892.969299,596.559875 
	C890.286499,598.011658 887.603638,599.463440 884.920837,600.915222 
	C885.287598,601.657288 885.654297,602.399353 886.021057,603.141418 
	C889.857178,601.644165 893.693298,600.146912 897.529419,598.649597 
	C897.440369,598.133789 897.351257,597.617981 897.262146,597.102112 
	C896.058960,596.850220 894.855774,596.598328 892.969299,596.559875 
M1067.395508,373.544495 
	C1068.996338,372.807922 1070.597290,372.071381 1072.198120,371.334808 
	C1068.439575,369.976410 1065.104736,365.988281 1060.901978,370.657715 
	C1063.245239,371.807251 1064.973755,372.655182 1067.395508,373.544495 
M922.774597,309.616943 
	C924.068237,308.669922 925.361877,307.722870 926.655518,306.775848 
	C925.864136,305.902283 925.043823,304.271881 924.286926,304.300812 
	C922.230103,304.379425 920.200073,305.160614 918.159424,305.663330 
	C918.245605,306.144501 918.331787,306.625671 918.418030,307.106812 
	C919.646790,307.857178 920.875549,308.607574 922.774597,309.616943 
M479.697357,514.475281 
	C482.289856,509.352600 481.534760,505.453461 476.779144,503.688019 
	C477.582794,507.578705 478.292603,511.015045 479.697357,514.475281 
M919.912781,480.513153 
	C920.064636,479.273682 920.216431,478.034241 920.368286,476.794769 
	C918.019226,477.182770 915.670166,477.570740 913.321106,477.958740 
	C913.417297,478.922302 913.513550,479.885864 913.609802,480.849426 
	C915.501953,480.849426 917.394104,480.849426 919.912781,480.513153 
M499.186707,586.274170 
	C498.025177,586.352905 496.863647,586.431641 494.236420,586.609741 
	C496.327362,588.332520 497.149841,589.496704 498.206146,589.775757 
	C500.198669,590.302124 502.325867,590.318787 504.397064,590.547241 
	C502.896301,589.201294 501.395508,587.855286 499.186707,586.274170 
M1029.996460,351.519775 
	C1028.326172,352.231415 1026.656006,352.943054 1024.985718,353.654694 
	C1025.180420,354.283997 1025.375122,354.913269 1025.569824,355.542542 
	C1027.120483,355.690186 1028.708008,356.104919 1030.209351,355.896942 
	C1031.314209,355.743835 1032.306274,354.776245 1033.348511,354.171631 
	C1032.462524,353.363770 1031.576416,352.555939 1029.996460,351.519775 
M701.365479,213.337830 
	C704.828186,215.569061 706.526001,214.877060 707.364807,209.358536 
	C705.382263,210.446518 703.399719,211.534515 701.365479,213.337830 
M497.503571,303.262756 
	C499.934479,305.357483 502.185242,305.153198 504.469940,302.910492 
	C500.114471,299.190094 498.172028,299.207153 497.503571,303.262756 
M324.415039,400.060944 
	C325.560120,399.690430 326.705200,399.319946 327.850250,398.949432 
	C326.611633,397.211700 325.373016,395.473969 324.134399,393.736267 
	C323.558990,394.072113 322.983612,394.407990 322.408234,394.743866 
	C322.891937,396.366211 323.375641,397.988525 324.415039,400.060944 
M1020.621948,348.462128 
	C1018.947937,347.882690 1017.288269,347.237823 1015.569885,346.860565 
	C1015.446045,346.833344 1014.893738,348.757599 1014.540649,349.774506 
	C1016.289612,349.814972 1018.038940,349.881683 1019.787231,349.862701 
	C1020.005554,349.860321 1020.218933,349.404572 1020.621948,348.462128 
M625.136169,647.182251 
	C622.372375,646.627258 619.608582,646.072205 616.844788,645.517212 
	C616.786438,646.069153 616.728088,646.621155 616.669739,647.173096 
	C619.371582,648.808350 622.094910,650.257751 625.136169,647.182251 
M564.408020,621.214233 
	C566.470520,625.088135 568.853882,623.387817 571.215637,622.064087 
	C571.225098,621.449097 571.234558,620.834167 571.244019,620.219238 
	C568.952332,620.328613 566.660645,620.438049 564.408020,621.214233 
M336.453247,400.344635 
	C335.467743,401.658081 334.482239,402.971527 333.496765,404.284973 
	C334.453918,404.750122 335.411041,405.215240 336.368195,405.680389 
	C336.615295,404.010162 336.862396,402.339905 336.453247,400.344635 
M930.744141,308.215637 
	C930.353027,309.108368 929.961975,310.001068 929.570862,310.893799 
	C931.379211,311.272919 933.187500,311.652069 934.995850,312.031189 
	C935.192810,311.418762 935.389709,310.806366 935.586670,310.193939 
	C934.213867,309.498779 932.841003,308.803589 930.744141,308.215637 
M901.388367,487.633209 
	C900.126099,484.048828 898.472717,485.028503 896.682068,488.237762 
	C898.180542,488.237762 899.679077,488.237762 901.388367,487.633209 
M584.598816,263.805176 
	C584.712524,264.478210 584.826294,265.151215 584.940002,265.824280 
	C585.728699,265.372375 586.517395,264.920502 587.306091,264.468567 
	C586.578064,264.155579 585.849976,263.842621 584.598816,263.805176 
z"/>
<path fill="#EEC611" opacity="1.000000" stroke="none" 
	d="
M473.884399,485.013489 
	C474.326904,487.886230 474.389465,490.865356 473.904175,494.316223 
	C421.224335,517.926331 369.092377,541.064758 316.493927,564.410156 
	C318.011963,565.223206 318.992096,565.828430 320.034332,566.294800 
	C370.612061,588.925903 421.315613,611.280151 471.749420,634.227356 
	C547.953064,668.899841 623.986023,703.947876 700.023560,738.983887 
	C704.701782,741.139465 708.548279,741.112610 713.191895,738.987488 
	C781.456421,707.747375 849.779785,676.635681 918.113525,645.547119 
	C937.194275,636.866272 956.354248,628.359741 975.477905,619.773193 
	C975.489441,622.915833 975.500977,626.058533 974.966431,629.639404 
	C966.493408,633.724121 958.566528,637.370667 950.293579,641.066528 
	C946.675720,642.715393 943.403870,644.314819 939.772217,645.985596 
	C899.050598,664.220337 858.653198,682.305054 818.337952,700.571106 
	C783.643860,716.290283 749.038025,732.204407 714.407410,748.063599 
	C709.250488,750.425232 704.216431,750.607666 699.006958,748.156372 
	C691.481995,744.615662 683.853455,741.295837 676.291321,737.833069 
	C612.001831,708.393677 547.720886,678.935425 483.418793,649.523376 
	C480.749542,648.302429 477.896881,647.482239 474.970032,646.179749 
	C471.152924,644.207153 467.495483,642.530212 463.838043,640.853271 
	C422.368286,622.045532 380.908417,603.215942 339.421326,584.446472 
	C329.726837,580.060486 319.950226,575.855042 310.189606,571.616577 
	C307.147675,570.295715 304.463745,568.762512 304.487518,564.899536 
	C304.511841,560.949646 307.060516,559.063843 310.311340,557.627197 
	C351.527069,539.413208 392.739471,521.191711 433.931763,502.924744 
	C447.154266,497.061188 460.315247,491.058777 473.884399,485.013489 
z"/>
<path fill="#E6202C" opacity="1.000000" stroke="none" 
	d="
M463.512115,641.246582 
	C467.495483,642.530212 471.152924,644.207153 474.591614,646.249390 
	C426.778687,668.233093 379.184540,689.851501 331.590363,711.469910 
	C331.708801,712.008667 331.827209,712.547485 331.945648,713.086243 
	C334.273010,714.291748 336.549408,715.610291 338.935303,716.686035 
	C382.959991,736.536560 427.011536,756.327576 471.029694,776.192566 
	C547.519897,810.712036 624.002625,845.248230 700.440063,879.884277 
	C704.712341,881.820068 708.265625,881.997620 712.663208,879.974731 
	C738.532837,868.074524 764.551880,856.499084 790.514221,844.800110 
	C832.259888,825.989075 873.993774,807.151917 915.746460,788.356384 
	C935.784058,779.336121 955.853149,770.385803 975.908081,761.403870 
	C976.011658,764.218750 976.115234,767.033569 976.144104,770.214294 
	C954.554688,780.354492 933.059692,790.172546 911.520264,799.892151 
	C884.514465,812.078552 857.463623,824.164978 830.448059,836.329590 
	C792.191040,853.556152 753.917603,870.746826 715.730591,888.127136 
	C709.498230,890.963684 703.668274,891.204773 697.480835,888.403564 
	C660.165710,871.510010 622.809448,854.707092 585.494385,837.813416 
	C540.606689,817.491516 495.764282,797.069397 450.868744,776.764832 
	C408.995941,757.827454 367.084015,738.976562 325.172546,720.124878 
	C321.794952,718.605530 318.923096,716.822327 318.976105,712.595337 
	C319.028534,708.418762 321.888763,706.574463 325.237762,705.050720 
	C368.275391,685.469299 411.305664,665.871704 454.320496,646.240295 
	C457.345490,644.859680 460.234131,643.180359 463.512115,641.246582 
z"/>
<path fill="#EEC611" opacity="1.000000" stroke="none" 
	d="
M985.413574,624.993164 
	C984.996216,621.982666 984.952393,618.959717 985.375244,615.502625 
	C1022.975220,598.514832 1060.108521,581.961121 1098.650146,564.779541 
	C1059.909058,547.671997 1022.580261,531.188049 985.251526,514.704163 
	C985.083496,511.681763 984.915466,508.659332 984.933594,505.293549 
	C1024.644775,522.528259 1064.168579,540.109009 1103.697021,557.679443 
	C1106.905029,559.105347 1109.546875,560.915588 1109.523193,564.940247 
	C1109.500000,568.894287 1107.021240,570.850952 1103.781738,572.296570 
	C1064.446777,589.850159 1025.117798,607.417175 985.413574,624.993164 
z"/>
<path fill="#E6202C" opacity="1.000000" stroke="none" 
	d="
M984.816406,766.195496 
	C984.461670,763.399292 984.425964,760.623291 984.666870,757.476807 
	C1017.697693,742.498169 1050.451782,727.890137 1083.205933,713.282043 
	C1083.229004,712.670044 1083.251953,712.058044 1083.275024,711.446045 
	C1050.467529,696.585022 1017.660095,681.723938 984.852661,666.862915 
	C984.773804,664.016541 984.694885,661.170105 984.470825,658.017334 
	C991.529663,660.623352 998.850769,663.278625 1005.917175,666.493774 
	C1033.604858,679.091553 1061.196167,691.900757 1088.868652,704.532227 
	C1092.420654,706.153625 1095.374268,707.951355 1095.526123,712.306641 
	C1095.684082,716.831909 1092.516724,718.551941 1089.028931,720.109863 
	C1055.028198,735.296753 1021.042114,750.516479 987.045044,765.711548 
	C986.451904,765.976685 985.773804,766.051880 984.816406,766.195496 
z"/>
<path fill="#41E208" opacity="1.000000" stroke="none" 
	d="
M984.511353,503.323059 
	C984.340332,487.494476 984.260498,471.225922 984.285828,454.581238 
	C984.461487,470.431061 984.531982,486.657074 984.511353,503.323059 
z"/>
<path fill="#41E208" opacity="1.000000" stroke="none" 
	d="
M976.377319,797.406128 
	C976.607788,797.378662 976.647278,797.521545 976.507507,797.756775 
	C976.446350,797.814148 976.304443,797.541443 976.377319,797.406128 
z"/>
<path fill="#52F802" opacity="1.000000" stroke="none" 
	d="
M363.532013,362.318390 
	C366.326721,360.585571 368.668457,358.702759 371.305542,357.433380 
	C380.055878,353.221313 388.873932,349.143768 397.737549,345.174500 
	C410.591339,339.418274 423.513824,333.815643 436.393219,328.116333 
	C440.160889,326.449127 443.771179,324.336945 447.662170,323.068695 
	C450.333740,322.197876 453.365540,322.432129 457.477570,322.060150 
	C456.232483,324.258911 456.059845,325.079285 455.602570,325.294250 
	C448.292938,328.730713 440.993408,332.195526 433.599121,335.443420 
	C420.395508,341.243011 407.091949,346.815491 393.899536,352.639923 
	C377.417633,359.916718 361.008148,367.357483 344.558044,374.706512 
	C343.507172,375.175964 342.353668,375.805725 341.288086,375.737061 
	C340.315735,375.674408 339.142181,374.947174 338.568481,374.146545 
	C338.297882,373.768951 339.154083,372.490234 339.638245,371.705261 
	C339.877838,371.316864 340.424286,370.887085 340.843781,370.874542 
	C348.149841,370.656189 352.900452,364.780212 359.305237,362.623322 
	C360.493073,362.223328 361.905548,362.490295 363.532013,362.318390 
z"/>
<path fill="#41E208" opacity="1.000000" stroke="none" 
	d="
M978.003723,554.000000 
	C978.011230,541.174011 977.963562,528.847412 978.107422,516.523010 
	C978.123596,515.132996 979.220886,513.755554 979.816895,512.372314 
	C980.804504,513.702454 982.153625,514.905518 982.678406,516.398376 
	C983.205872,517.898865 982.970154,519.687744 982.970825,521.350281 
	C982.982361,550.666199 983.097046,579.983154 982.846313,609.296875 
	C982.810242,613.518494 980.998657,617.724854 978.995911,622.179260 
	C978.676941,620.440491 978.086670,618.702698 978.080383,616.962830 
	C978.005005,596.142029 978.016296,575.320984 978.003723,554.000000 
z"/>
<path fill="#52F802" opacity="1.000000" stroke="none" 
	d="
M754.825439,664.902710 
	C739.873413,667.986938 725.369141,671.375427 710.695801,673.694275 
	C704.948853,674.602539 698.806091,673.259888 692.882568,672.595093 
	C691.618408,672.453247 690.523315,670.804810 689.350342,669.850464 
	C690.716919,669.243713 692.035828,668.360474 693.464600,668.113953 
	C694.708618,667.899170 696.112854,668.268433 697.384155,668.610596 
	C708.395020,671.574402 719.192139,668.639648 729.913452,667.020447 
	C745.084778,664.729187 759.161377,658.521790 773.478333,653.259155 
	C778.474548,651.422668 783.819153,650.412231 788.614014,648.184021 
	C793.485962,645.919922 797.844604,642.566345 802.491150,639.795776 
	C804.620544,638.526245 806.938660,637.221375 809.043030,640.996521 
	C791.503662,650.224915 773.697083,658.256714 754.825439,664.902710 
z"/>
<path fill="#52F802" opacity="1.000000" stroke="none" 
	d="
M978.031860,754.050232 
	C978.023926,714.723572 978.014221,675.396973 978.015564,636.070312 
	C978.015625,634.741089 977.966064,633.375671 978.253845,632.097839 
	C978.400452,631.446838 979.408264,630.401001 979.744019,630.499329 
	C980.535095,630.731018 981.580383,631.435852 981.757263,632.141174 
	C982.113770,633.562378 982.009705,635.111511 982.009888,636.607849 
	C982.014771,675.434692 982.008545,714.261475 981.604980,753.554260 
	C980.147644,754.030212 979.089783,754.040222 978.031860,754.050232 
z"/>
<path fill="#52F802" opacity="1.000000" stroke="none" 
	d="
M804.964111,529.963074 
	C809.028931,527.677490 812.987976,525.173340 817.177490,523.145447 
	C832.423279,515.766052 847.683228,508.409424 863.066284,501.323029 
	C870.816467,497.752808 878.817383,494.717072 886.768616,491.602264 
	C888.116028,491.074463 889.786621,491.371826 891.490112,492.031738 
	C888.278259,495.107727 885.176758,497.946930 880.230408,496.991028 
	C879.201721,496.792206 877.260376,497.319763 876.949829,498.036774 
	C874.560059,503.554504 869.337585,503.666107 864.668884,505.030273 
	C862.802734,505.575562 861.134705,506.827820 859.406738,507.811340 
	C856.111328,509.687012 852.983887,511.940430 849.525208,513.429932 
	C841.664001,516.815308 833.560303,519.640930 825.720886,523.072571 
	C821.053772,525.115540 816.815735,528.138489 812.149292,530.183411 
	C810.316406,530.986633 807.840820,530.323425 805.328613,530.163696 
	C804.999207,529.999329 804.964111,529.963074 804.964111,529.963074 
z"/>
<path fill="#52F802" opacity="1.000000" stroke="none" 
	d="
M525.341675,288.253479 
	C543.413269,280.269928 561.132935,272.422729 579.353027,264.353912 
	C579.830383,266.091858 580.238708,267.578430 580.694031,269.236176 
	C573.322876,272.704468 566.321777,276.094025 559.238098,279.301147 
	C553.647949,281.832123 548.152893,285.063782 542.261047,286.316833 
	C534.440369,287.980011 528.398376,293.276031 520.803162,295.225433 
	C517.705261,296.020569 515.002380,298.338837 512.106262,299.939758 
	C509.264313,301.510803 507.084503,300.951782 505.265656,297.399689 
	C511.969299,294.337494 518.479492,291.363647 525.341675,288.253479 
z"/>
<path fill="#EEC611" opacity="1.000000" stroke="none" 
	d="
M939.246460,485.175476 
	C951.083679,489.895203 962.735596,494.935425 974.740845,500.105988 
	C975.486938,503.350800 975.879639,506.465240 976.048584,509.915833 
	C963.908264,505.073730 951.991638,499.895538 939.744019,494.594788 
	C939.192078,494.071472 938.971008,493.670746 938.614990,492.711182 
	C938.371460,491.384979 938.262878,490.617584 938.154236,489.850220 
	C938.456543,488.398773 938.758850,486.947357 939.246460,485.175476 
z"/>
<path fill="#E6202C" opacity="1.000000" stroke="none" 
	d="
M976.111328,663.107788 
	C964.276123,657.526245 952.440857,651.944763 940.368835,646.138733 
	C943.403870,644.314819 946.675720,642.715393 950.524048,641.353638 
	C959.333801,645.414124 967.567139,649.236816 975.800476,653.059509 
	C975.995728,656.131653 976.190918,659.203735 976.374634,662.591003 
	C976.363037,662.906128 976.111328,663.107788 976.111328,663.107788 
z"/>
<path fill="#52F802" opacity="1.000000" stroke="none" 
	d="
M682.050598,221.047607 
	C680.872253,222.741486 680.060974,225.252670 678.447327,225.977554 
	C673.397339,228.245972 667.862000,229.447266 662.847290,231.777756 
	C652.384338,236.640121 642.168152,242.030991 631.770752,247.039032 
	C629.486755,248.139175 626.869751,248.548187 622.860901,249.731598 
	C623.930298,247.026489 624.098816,245.085373 624.943848,244.723328 
	C628.736511,243.098373 632.724487,241.930817 636.634583,240.576843 
	C637.372314,240.321396 638.155029,240.081650 638.784241,239.643906 
	C651.695251,230.661728 666.184753,225.272614 681.577087,220.983612 
	C681.999695,220.998734 682.050598,221.047607 682.050598,221.047607 
z"/>
<path fill="#52F802" opacity="1.000000" stroke="none" 
	d="
M881.132263,604.157898 
	C880.869934,605.354248 880.549988,607.031982 879.628357,607.484680 
	C861.223572,616.523926 842.766541,625.457642 824.273193,634.314819 
	C821.016174,635.874695 817.548584,636.995239 813.225708,637.770508 
	C814.154541,636.354736 814.754822,634.298157 816.065063,633.626343 
	C825.196655,628.944275 834.463257,624.524475 843.710693,620.070496 
	C850.863586,616.625427 857.979553,613.088928 865.248291,609.904297 
	C870.310791,607.686218 875.604248,605.995300 881.132263,604.157898 
z"/>
<path fill="#52F802" opacity="1.000000" stroke="none" 
	d="
M1033.179932,422.113861 
	C1041.369995,418.120880 1048.890015,412.854431 1057.182007,410.949707 
	C1062.153198,409.807770 1065.058716,406.460297 1069.319824,404.975952 
	C1072.805298,403.761841 1074.137939,404.739014 1074.741455,409.211731 
	C1069.106323,405.298859 1067.492920,409.862000 1064.448486,412.392944 
	C1061.083252,415.190552 1056.760742,416.900665 1052.729370,418.820038 
	C1044.122070,422.917999 1035.450195,426.882446 1026.766479,430.817108 
	C1024.520142,431.834991 1022.186218,432.838654 1019.788208,433.274170 
	C1018.406250,433.525055 1016.815430,432.625305 1015.318604,432.243500 
	C1015.336792,431.733093 1015.354980,431.222687 1015.373169,430.712280 
	C1021.193726,427.893433 1027.014282,425.074615 1033.179932,422.113861 
z"/>
<path fill="#52F802" opacity="1.000000" stroke="none" 
	d="
M977.998657,462.293274 
	C976.663757,458.147552 975.329102,454.461914 974.084534,451.025085 
	C978.088928,448.797577 982.977661,445.815796 988.114258,443.350281 
	C990.161804,442.367493 992.757141,442.525848 995.103088,442.164734 
	C995.339966,442.866821 995.576843,443.568909 995.813660,444.271027 
	C993.848694,445.500397 992.024475,447.122223 989.892761,447.886749 
	C983.055298,450.338928 981.439392,452.940552 981.679993,459.964661 
	C982.030212,470.187866 981.998779,480.427765 981.912781,490.658691 
	C981.898987,492.295685 980.752686,493.923126 980.129822,495.554962 
	C979.419556,495.439331 978.709229,495.323700 977.998962,495.208069 
	C977.998962,484.389832 977.998962,473.571625 977.998657,462.293274 
z"/>
<path fill="#52F802" opacity="1.000000" stroke="none" 
	d="
M760.831543,548.787231 
	C768.655457,545.585876 776.127441,542.502563 783.682922,539.639404 
	C784.999817,539.140381 786.668091,539.568726 788.478638,540.701843 
	C787.680298,541.349304 786.973694,542.193970 786.069824,542.614807 
	C771.466370,549.413147 756.831543,556.144287 742.220520,562.926514 
	C739.530945,564.174927 737.205505,564.429260 735.275940,561.074341 
	C743.858093,556.960693 752.183044,552.970337 760.831543,548.787231 
z"/>
<path fill="#52F802" opacity="1.000000" stroke="none" 
	d="
M935.892517,507.177063 
	C936.308960,525.739685 936.688110,543.971436 936.903870,562.205017 
	C936.917175,563.329773 935.643677,564.469666 934.968933,565.602539 
	C934.323730,564.612061 933.106262,563.614685 933.118042,562.632141 
	C933.335388,544.562012 933.688843,526.493469 934.074524,508.425873 
	C934.089172,507.737885 934.708618,507.059143 935.072998,506.390747 
	C935.095764,506.348999 935.377441,506.397308 935.495239,506.472076 
	C935.628479,506.556610 935.712646,506.718414 935.892517,507.177063 
z"/>
<path fill="#41E208" opacity="1.000000" stroke="none" 
	d="
M978.029907,754.513733 
	C979.089783,754.040222 980.147644,754.030212 981.603027,754.024780 
	C982.279541,759.626160 982.724487,765.220825 982.796814,770.820374 
	C982.892700,778.246643 982.849792,785.683655 982.507507,793.099487 
	C982.433167,794.709412 980.836243,796.249023 979.940613,797.821045 
	C979.303101,797.690613 978.665527,797.560181 978.028015,797.429749 
	C978.028015,783.278931 978.028015,769.128052 978.029907,754.513733 
z"/>
<path fill="#52F802" opacity="1.000000" stroke="none" 
	d="
M717.169312,574.227417 
	C709.893921,578.195435 697.580566,578.237244 693.133972,570.863098 
	C694.366089,570.691528 695.553711,570.130676 696.337463,570.478821 
	C703.314392,573.578064 710.278015,571.764709 717.242920,570.606140 
	C717.821594,570.509888 718.466187,570.059021 718.837463,569.583435 
	C722.669678,564.674133 727.865784,564.272644 734.444153,564.860718 
	C729.866760,571.112305 722.279785,570.099243 717.169312,574.227417 
z"/>
<path fill="#52F802" opacity="1.000000" stroke="none" 
	d="
M316.522369,390.465576 
	C317.698395,391.581604 318.688202,392.399902 321.038971,394.343384 
	C317.793304,394.699951 315.289307,395.761902 314.144592,394.937225 
	C311.752045,393.213501 309.759552,390.662750 308.369720,388.044556 
	C308.086395,387.510773 310.948761,384.779480 312.756714,383.769623 
	C316.940643,381.432709 321.286011,379.323792 325.742554,377.571869 
	C327.139771,377.022583 329.100769,377.907501 330.803680,378.135925 
	C330.869232,378.858734 330.934753,379.581543 331.000305,380.304352 
	C326.890289,382.191071 322.924438,384.597992 318.621979,385.790192 
	C315.511230,386.652222 315.174133,387.689423 316.522369,390.465576 
z"/>
<path fill="#52F802" opacity="1.000000" stroke="none" 
	d="
M757.479370,230.488708 
	C767.141113,234.706223 776.449890,238.785614 785.758667,242.865005 
	C781.782410,244.769028 778.520325,247.167175 774.214905,243.315933 
	C771.588562,240.966721 766.583374,241.496887 765.148865,236.864975 
	C765.051880,236.551865 763.351501,236.797180 762.412048,236.670547 
	C760.302490,236.386200 758.101074,236.306290 756.142944,235.584564 
	C755.216797,235.243256 754.092102,233.471710 754.279175,232.614792 
	C754.479492,231.696671 756.116455,231.092041 757.479370,230.488708 
z"/>
<path fill="#52F802" opacity="1.000000" stroke="none" 
	d="
M952.576050,465.635498 
	C947.971497,467.578247 943.651428,469.253143 939.502930,471.279358 
	C938.392151,471.821869 937.953796,473.602814 936.936523,474.513184 
	C935.890930,475.448914 934.514771,476.015259 933.283203,476.743225 
	C932.617126,475.421204 931.333130,474.066010 931.402039,472.783447 
	C931.598999,469.116058 936.154480,466.378479 941.061646,466.140717 
	C942.862488,466.053436 944.757996,465.295197 946.365601,464.402283 
	C949.480164,462.672241 952.361633,460.522095 955.478638,458.796997 
	C956.201721,458.396759 957.482605,459.004425 958.506836,459.148346 
	C958.323914,460.225647 958.517700,461.716370 957.881470,462.296326 
	C956.447327,463.603394 954.602478,464.459686 952.576050,465.635498 
z"/>
<path fill="#52F802" opacity="1.000000" stroke="none" 
	d="
M534.961548,499.014160 
	C531.780640,497.489838 528.983582,496.029205 526.090027,494.794647 
	C522.588928,493.300873 522.714539,491.267761 525.051453,488.414154 
	C532.201782,491.741669 539.334290,495.060852 546.575012,498.430420 
	C543.184082,502.649963 542.371704,502.676117 534.961548,499.014160 
z"/>
<path fill="#52F802" opacity="1.000000" stroke="none" 
	d="
M1094.266602,385.825897 
	C1088.733398,383.361572 1083.571411,381.015839 1077.653687,378.326691 
	C1081.712646,374.592590 1084.751221,376.480164 1087.944824,378.083954 
	C1091.539673,379.889160 1095.318359,381.325958 1098.931641,383.097137 
	C1101.286865,384.251648 1103.489990,385.716553 1105.761230,387.042419 
	C1105.474365,387.704651 1105.187378,388.366852 1104.900513,389.029083 
	C1101.479614,388.000885 1098.058716,386.972687 1094.266602,385.825897 
z"/>
<path fill="#52F802" opacity="1.000000" stroke="none" 
	d="
M733.014282,220.099075 
	C738.382324,222.412582 743.408264,224.593521 748.593750,226.843704 
	C744.505127,230.672058 732.982361,227.494202 724.274353,220.417130 
	C727.056335,218.102402 729.781372,218.003525 733.014282,220.099075 
z"/>
<path fill="#52F802" opacity="1.000000" stroke="none" 
	d="
M538.793091,606.531494 
	C533.281860,609.892456 530.009827,604.659180 525.808105,603.477356 
	C522.068787,602.425537 518.674561,600.032349 515.266052,597.999756 
	C514.421021,597.495789 514.110352,596.095825 513.554077,595.107727 
	C514.910889,594.920715 516.535461,594.158508 517.578918,594.644409 
	C522.573242,596.970032 527.438171,599.581848 532.290527,602.200378 
	C534.602844,603.448181 536.784729,604.937622 538.793091,606.531494 
z"/>
<path fill="#52F802" opacity="1.000000" stroke="none" 
	d="
M856.792725,278.973694 
	C851.279907,277.222626 846.124329,275.576324 841.087402,273.624146 
	C840.367004,273.344940 839.697510,270.769318 839.892151,270.644867 
	C841.184143,269.818817 843.069336,268.514801 844.114624,268.943573 
	C849.672913,271.223419 855.040344,273.968445 861.928772,277.244385 
	C859.354309,278.187134 858.271118,278.583832 856.792725,278.973694 
z"/>
<path fill="#52F802" opacity="1.000000" stroke="none" 
	d="
M878.883606,290.130249 
	C875.140442,288.385162 871.737976,286.797760 868.256470,285.173431 
	C871.492615,280.793915 877.547913,281.625336 881.890808,286.157501 
	C883.407410,287.740112 885.931824,288.343170 887.964905,289.450623 
	C888.928711,289.975586 889.819519,290.634674 890.743347,291.233002 
	C889.486633,292.035431 888.029724,293.706512 887.011902,293.472015 
	C884.314697,292.850677 881.807312,291.405396 878.883606,290.130249 
z"/>
<path fill="#52F802" opacity="1.000000" stroke="none" 
	d="
M384.883484,423.189941 
	C387.640106,424.395782 390.199982,425.196075 392.432404,426.540222 
	C393.377686,427.109344 393.634857,428.821289 394.204773,430.013855 
	C392.788055,430.428345 390.975342,431.616699 390.020660,431.128204 
	C384.909821,428.512970 379.959747,425.563965 375.098022,422.501862 
	C374.346466,422.028534 374.339020,420.373688 373.589386,418.010101 
	C378.080475,420.055664 381.317413,421.529968 384.883484,423.189941 
z"/>
<path fill="#41E208" opacity="1.000000" stroke="none" 
	d="
M984.468140,515.539795 
	C984.612732,547.772461 984.592834,580.353455 984.456055,613.376465 
	C984.209656,612.007141 983.968750,610.195862 983.967224,608.384338 
	C983.942749,579.531006 983.941895,550.677673 983.963318,521.824341 
	C983.964783,519.845520 984.185059,517.866760 984.468140,515.539795 
z"/>
<path fill="#52F802" opacity="1.000000" stroke="none" 
	d="
M622.957642,537.903687 
	C619.552856,536.804077 616.495544,535.840698 613.329834,534.843140 
	C618.226624,530.336548 620.172119,532.425781 636.424988,541.228394 
	C633.059631,544.512634 630.097839,544.513123 626.389709,541.164490 
	C625.305298,540.185303 624.330322,539.084839 622.957642,537.903687 
z"/>
<path fill="#52F802" opacity="1.000000" stroke="none" 
	d="
M896.739197,295.026520 
	C902.145874,296.278717 907.237793,297.390106 912.179260,298.971313 
	C913.184326,299.292908 913.623169,301.383942 914.323059,302.659241 
	C912.849854,302.851074 911.222656,303.541016 909.932190,303.141876 
	C905.963745,301.914368 902.134888,300.241272 898.231140,298.797119 
	C895.298950,297.712341 894.996582,297.172791 896.739197,295.026520 
z"/>
<path fill="#52F802" opacity="1.000000" stroke="none" 
	d="
M982.631470,331.594208 
	C986.759216,333.016235 990.559326,334.450500 994.291077,336.044861 
	C994.874878,336.294312 995.629333,337.476807 995.462280,337.869354 
	C995.130676,338.648895 994.266541,339.625092 993.524170,339.715820 
	C992.115784,339.888062 990.508545,339.807709 989.214783,339.273224 
	C985.915100,337.909973 982.677368,336.357025 979.551941,334.631592 
	C978.351685,333.968964 977.523254,332.632751 976.525391,331.603455 
	C977.952332,331.597870 979.379272,331.585724 980.806213,331.590271 
	C981.297974,331.591858 981.789612,331.634979 982.631470,331.594208 
z"/>
<path fill="#41E208" opacity="1.000000" stroke="none" 
	d="
M984.014160,671.539124 
	C984.214661,673.371582 984.541626,675.663452 984.540771,677.955200 
	C984.532104,701.705017 984.470642,725.454773 984.235229,749.554077 
	C984.027222,723.935181 984.007812,697.966797 984.014160,671.539124 
z"/>
<path fill="#52F802" opacity="1.000000" stroke="none" 
	d="
M604.970581,256.969635 
	C605.803589,250.749832 613.756348,246.927292 620.243835,250.443039 
	C616.163330,254.774551 611.403564,256.676544 605.421387,257.013550 
	C604.998657,256.998901 604.970581,256.969635 604.970581,256.969635 
z"/>
<path fill="#52F802" opacity="1.000000" stroke="none" 
	d="
M1005.611572,440.639862 
	C1002.730652,440.873932 1000.209351,440.981567 997.688110,441.089172 
	C999.571899,439.408661 1001.304138,437.498627 1003.388733,436.122162 
	C1004.981262,435.070679 1006.981140,434.358398 1008.874023,434.140594 
	C1010.063416,434.003754 1011.390076,435.059723 1012.655151,435.580566 
	C1011.922791,436.535400 1011.359863,437.735748 1010.417419,438.386139 
	C1009.082031,439.307770 1007.466858,439.823975 1005.611572,440.639862 
z"/>
<path fill="#52F802" opacity="1.000000" stroke="none" 
	d="
M644.292114,546.894897 
	C650.379578,544.941223 654.020081,549.108704 659.426819,551.415344 
	C655.195923,553.759399 652.255310,555.340271 648.923218,551.760315 
	C647.937439,550.701172 645.857727,550.736023 644.565735,549.851318 
	C643.997681,549.462341 644.146057,548.026978 644.292114,546.894897 
z"/>
<path fill="#52F802" opacity="1.000000" stroke="none" 
	d="
M665.317505,554.568176 
	C669.222534,556.108826 672.790894,557.730896 676.366943,559.356384 
	C673.909729,564.085144 672.423401,564.169678 666.012878,560.174683 
	C663.688293,558.726074 661.586853,557.188354 665.317505,554.568176 
z"/>
<path fill="#52F802" opacity="1.000000" stroke="none" 
	d="
M937.825439,489.773987 
	C938.262878,490.617584 938.371460,491.384979 938.458984,492.542603 
	C937.483582,496.309784 936.529358,499.686676 935.460571,503.468964 
	C931.950439,496.331390 932.270630,486.512329 935.791260,484.528473 
	C936.358826,486.248840 936.927673,487.973297 937.825439,489.773987 
z"/>
<path fill="#52F802" opacity="1.000000" stroke="none" 
	d="
M929.356934,582.434326 
	C925.800903,583.873657 922.561523,585.116516 919.322083,586.359375 
	C919.035461,585.755554 918.748901,585.151672 918.462280,584.547852 
	C923.688782,581.423340 928.915283,578.298828 934.255249,575.106506 
	C936.452332,578.366028 936.220642,578.776123 929.356934,582.434326 
z"/>
<path fill="#52F802" opacity="1.000000" stroke="none" 
	d="
M605.012451,257.013672 
	C602.106812,261.474213 594.416382,263.874695 589.027710,261.605286 
	C593.191528,256.459229 598.417969,255.942780 604.565308,256.967743 
	C604.970581,256.969635 604.998657,256.998901 605.012451,257.013672 
z"/>
<path fill="#52F802" opacity="1.000000" stroke="none" 
	d="
M953.214722,320.388916 
	C957.433899,317.149017 960.456238,320.666718 963.596558,322.237549 
	C964.449158,322.664001 964.057861,325.577057 964.237488,327.348907 
	C963.641602,327.669525 963.045654,327.990173 962.449768,328.310822 
	C959.349243,325.786285 956.248718,323.261780 953.214722,320.388916 
z"/>
<path fill="#52F802" opacity="1.000000" stroke="none" 
	d="
M681.974365,220.974091 
	C682.125549,220.318268 682.115601,219.304443 682.506714,219.113892 
	C687.578796,216.642883 692.707886,214.288818 698.236206,211.712509 
	C697.783875,215.955460 692.179382,220.425278 688.631104,220.417938 
	C686.684753,220.413910 684.737671,220.720901 682.420776,220.967621 
	C682.050598,221.047607 681.999695,220.998734 681.974365,220.974091 
z"/>
<path fill="#52F802" opacity="1.000000" stroke="none" 
	d="
M799.596252,253.785553 
	C795.990173,252.867218 792.744080,251.893448 789.162842,250.819138 
	C791.208313,246.877655 793.047241,244.968750 796.982361,248.056870 
	C798.676819,249.386658 801.135864,249.742218 804.203308,250.901611 
	C802.272583,252.187439 801.114380,252.958771 799.596252,253.785553 
z"/>
<path fill="#52F802" opacity="1.000000" stroke="none" 
	d="
M488.643463,579.829590 
	C490.991211,583.130737 487.055817,583.535645 486.603912,583.289124 
	C483.941315,581.836548 480.994904,580.278442 479.282532,577.926819 
	C478.113800,576.321960 478.801331,573.365356 478.684540,571.436768 
	C482.273834,574.492920 485.319092,577.085815 488.643463,579.829590 
z"/>
<path fill="#52F802" opacity="1.000000" stroke="none" 
	d="
M588.546082,629.163757 
	C589.192017,630.633179 589.554688,631.874695 589.917358,633.116272 
	C588.686890,633.211060 587.295105,633.720703 586.258240,633.317505 
	C583.821533,632.370178 581.441895,631.154175 579.273926,629.697571 
	C578.405518,629.114136 578.153931,627.612488 577.621582,626.528809 
	C578.751709,626.371582 579.993225,625.837097 580.989929,626.131531 
	C583.473633,626.865295 585.845825,627.976379 588.546082,629.163757 
z"/>
<path fill="#52F802" opacity="1.000000" stroke="none" 
	d="
M471.050232,318.136139 
	C467.733978,318.941833 464.761169,319.566223 461.788391,320.190643 
	C461.483337,319.299591 461.178284,318.408569 460.873230,317.517548 
	C464.303406,315.786957 467.733582,314.056396 471.163757,312.325806 
	C471.671997,312.544495 472.180267,312.763184 472.688507,312.981873 
	C472.256927,314.639526 471.825317,316.297180 471.050232,318.136139 
z"/>
<path fill="#52F802" opacity="1.000000" stroke="none" 
	d="
M401.371979,434.889648 
	C404.408875,431.464722 407.265930,432.010345 412.329285,436.642334 
	C408.948456,440.887115 406.180634,440.530823 401.371979,434.889648 
z"/>
<path fill="#52F802" opacity="1.000000" stroke="none" 
	d="
M436.641022,448.487061 
	C440.204254,449.519257 443.443939,450.713409 446.872803,451.977295 
	C443.746033,457.495087 440.676422,455.154205 437.842194,453.675415 
	C435.807556,452.613861 434.055481,451.158112 436.641022,448.487061 
z"/>
<path fill="#52F802" opacity="1.000000" stroke="none" 
	d="
M805.016724,530.017456 
	C802.544434,532.518860 800.210144,535.201111 797.459106,537.349792 
	C796.743469,537.908752 794.726990,536.802246 793.307983,536.460693 
	C793.964355,535.144775 794.300781,533.117249 795.338867,532.650452 
	C798.118347,531.400818 801.198608,530.820129 804.561768,529.968384 
	C804.964111,529.963074 804.999207,529.999329 805.016724,530.017456 
z"/>
<path fill="#52F802" opacity="1.000000" stroke="none" 
	d="
M426.577942,446.647430 
	C423.863708,446.140808 421.395172,445.705872 419.192810,444.692505 
	C418.531708,444.388336 418.612396,442.472015 418.353271,441.294250 
	C420.785675,441.511780 423.283264,441.457275 425.632965,442.020111 
	C428.202515,442.635620 428.649994,444.378265 426.577942,446.647430 
z"/>
<path fill="#52F802" opacity="1.000000" stroke="none" 
	d="
M819.710327,257.944153 
	C820.164795,259.048340 820.694763,260.734192 820.342834,260.944519 
	C819.062256,261.709930 817.358887,262.582458 816.051453,262.304016 
	C813.899048,261.845673 811.930908,260.521851 809.657532,259.456177 
	C812.678894,255.132675 815.946289,255.895935 819.710327,257.944153 
z"/>
<path fill="#52F802" opacity="1.000000" stroke="none" 
	d="
M604.076660,641.656372 
	C601.741089,640.475830 599.631348,639.510376 597.813843,638.153381 
	C597.125000,637.639099 597.109680,636.222595 596.787354,635.217285 
	C597.820740,634.990967 599.045227,634.295471 599.852539,634.624329 
	C602.518616,635.710144 605.034058,637.165955 608.700684,639.038147 
	C606.632080,640.331665 605.525513,641.023621 604.076660,641.656372 
z"/>
<path fill="#52F802" opacity="1.000000" stroke="none" 
	d="
M1050.858154,362.365051 
	C1053.079956,362.616241 1055.079346,362.736969 1056.815674,363.475616 
	C1057.906372,363.939636 1058.602661,365.331024 1059.475830,366.306335 
	C1058.207642,366.867218 1056.814819,368.071167 1055.697144,367.854675 
	C1053.395508,367.408844 1051.240723,366.204163 1049.025513,365.311768 
	C1049.525146,364.373138 1050.024902,363.434509 1050.858154,362.365051 
z"/>
<path fill="#52F802" opacity="1.000000" stroke="none" 
	d="
M656.633423,664.178589 
	C653.788574,663.355103 651.324219,662.605103 648.513184,661.749634 
	C652.031616,659.026917 657.855164,658.988953 660.383484,661.387085 
	C660.893921,661.871277 661.032837,662.747131 661.343079,663.442444 
	C659.900024,663.712341 658.456970,663.982178 656.633423,664.178589 
z"/>
<path fill="#52F802" opacity="1.000000" stroke="none" 
	d="
M458.408264,458.228027 
	C457.987640,459.535339 457.023041,461.812073 456.566132,461.714386 
	C454.366394,461.244080 452.174225,460.335175 450.276001,459.118958 
	C449.749817,458.781799 449.820923,456.550537 450.399170,455.759033 
	C450.852417,455.138672 452.666382,454.996674 453.599548,455.357178 
	C455.212067,455.980194 456.610199,457.158051 458.408264,458.228027 
z"/>
<path fill="#52F802" opacity="1.000000" stroke="none" 
	d="
M893.310913,596.453125 
	C894.855774,596.598328 896.058960,596.850220 897.262146,597.102112 
	C897.351257,597.617981 897.440369,598.133789 897.529419,598.649597 
	C893.693298,600.146912 889.857178,601.644165 886.021057,603.141418 
	C885.654297,602.399353 885.287598,601.657288 884.920837,600.915222 
	C887.603638,599.463440 890.286499,598.011658 893.310913,596.453125 
z"/>
<path fill="#52F802" opacity="1.000000" stroke="none" 
	d="
M1067.048828,373.523804 
	C1064.973755,372.655182 1063.245239,371.807251 1060.901978,370.657715 
	C1065.104736,365.988281 1068.439575,369.976410 1072.198120,371.334808 
	C1070.597290,372.071381 1068.996338,372.807922 1067.048828,373.523804 
z"/>
<path fill="#52F802" opacity="1.000000" stroke="none" 
	d="
M922.439453,309.487427 
	C920.875549,308.607574 919.646790,307.857178 918.418030,307.106812 
	C918.331787,306.625671 918.245605,306.144501 918.159424,305.663330 
	C920.200073,305.160614 922.230103,304.379425 924.286926,304.300812 
	C925.043823,304.271881 925.864136,305.902283 926.655518,306.775818 
	C925.361877,307.722870 924.068237,308.669922 922.439453,309.487427 
z"/>
<path fill="#52F802" opacity="1.000000" stroke="none" 
	d="
M479.349884,514.463379 
	C478.292603,511.015045 477.582794,507.578705 476.779144,503.688019 
	C481.534760,505.453461 482.289856,509.352600 479.349884,514.463379 
z"/>
<path fill="#52F802" opacity="1.000000" stroke="none" 
	d="
M919.599487,480.681274 
	C917.394104,480.849426 915.501953,480.849426 913.609802,480.849426 
	C913.513550,479.885864 913.417297,478.922302 913.321106,477.958740 
	C915.670166,477.570740 918.019226,477.182770 920.368286,476.794769 
	C920.216431,478.034241 920.064636,479.273682 919.599487,480.681274 
z"/>
<path fill="#52F802" opacity="1.000000" stroke="none" 
	d="
M499.540710,586.391724 
	C501.395508,587.855286 502.896301,589.201294 504.397064,590.547241 
	C502.325867,590.318787 500.198669,590.302124 498.206146,589.775757 
	C497.149841,589.496704 496.327362,588.332520 494.236420,586.609741 
	C496.863647,586.431641 498.025177,586.352905 499.540710,586.391724 
z"/>
<path fill="#52F802" opacity="1.000000" stroke="none" 
	d="
M1030.343506,351.633942 
	C1031.576416,352.555939 1032.462524,353.363770 1033.348511,354.171631 
	C1032.306274,354.776245 1031.314209,355.743835 1030.209351,355.896942 
	C1028.708008,356.104919 1027.120483,355.690186 1025.569824,355.542542 
	C1025.375122,354.913269 1025.180420,354.283997 1024.985718,353.654694 
	C1026.656006,352.943054 1028.326172,352.231415 1030.343506,351.633942 
z"/>
<path fill="#52F802" opacity="1.000000" stroke="none" 
	d="
M701.391296,212.980164 
	C703.399719,211.534515 705.382263,210.446518 707.364807,209.358536 
	C706.526001,214.877060 704.828186,215.569061 701.391296,212.980164 
z"/>
<path fill="#52F802" opacity="1.000000" stroke="none" 
	d="
M497.258789,303.029785 
	C498.172028,299.207153 500.114471,299.190094 504.469940,302.910492 
	C502.185242,305.153198 499.934479,305.357483 497.258789,303.029785 
z"/>
<path fill="#52F802" opacity="1.000000" stroke="none" 
	d="
M324.137207,399.835876 
	C323.375641,397.988525 322.891937,396.366211 322.408234,394.743866 
	C322.983612,394.407990 323.558990,394.072113 324.134399,393.736267 
	C325.373016,395.473969 326.611633,397.211700 327.850250,398.949463 
	C326.705200,399.319946 325.560120,399.690430 324.137207,399.835876 
z"/>
<path fill="#52F802" opacity="1.000000" stroke="none" 
	d="
M1020.528320,348.810516 
	C1020.218933,349.404572 1020.005554,349.860321 1019.787231,349.862701 
	C1018.038940,349.881683 1016.289612,349.814972 1014.540649,349.774506 
	C1014.893738,348.757599 1015.446045,346.833344 1015.569885,346.860565 
	C1017.288269,347.237823 1018.947937,347.882690 1020.528320,348.810516 
z"/>
<path fill="#52F802" opacity="1.000000" stroke="none" 
	d="
M625.202698,647.495056 
	C622.094910,650.257751 619.371582,648.808350 616.669739,647.173096 
	C616.728088,646.621155 616.786438,646.069153 616.844788,645.517212 
	C619.608582,646.072205 622.372375,646.627258 625.202698,647.495056 
z"/>
<path fill="#52F802" opacity="1.000000" stroke="none" 
	d="
M564.388489,620.880859 
	C566.660645,620.438049 568.952332,620.328613 571.244019,620.219238 
	C571.234558,620.834167 571.225098,621.449097 571.215637,622.064087 
	C568.853882,623.387817 566.470520,625.088135 564.388489,620.880859 
z"/>
<path fill="#52F802" opacity="1.000000" stroke="none" 
	d="
M336.781372,400.507141 
	C336.862396,402.339905 336.615295,404.010162 336.368195,405.680389 
	C335.411041,405.215240 334.453918,404.750122 333.496765,404.284973 
	C334.482239,402.971527 335.467743,401.658081 336.781372,400.507141 
z"/>
<path fill="#52F802" opacity="1.000000" stroke="none" 
	d="
M931.106201,308.162018 
	C932.841003,308.803589 934.213867,309.498779 935.586670,310.193939 
	C935.389709,310.806366 935.192810,311.418762 934.995850,312.031189 
	C933.187500,311.652069 931.379211,311.272919 929.570862,310.893799 
	C929.961975,310.001068 930.353027,309.108368 931.106201,308.162018 
z"/>
<path fill="#52F802" opacity="1.000000" stroke="none" 
	d="
M901.282959,487.935486 
	C899.679077,488.237762 898.180542,488.237762 896.682068,488.237762 
	C898.472717,485.028503 900.126099,484.048828 901.282959,487.935486 
z"/>
<path fill="#52F802" opacity="1.000000" stroke="none" 
	d="
M584.860352,263.667419 
	C585.849976,263.842621 586.578064,264.155579 587.306091,264.468567 
	C586.517395,264.920502 585.728699,265.372375 584.940002,265.824280 
	C584.826294,265.151215 584.712524,264.478210 584.860352,263.667419 
z"/>
<path fill="#41E208" opacity="1.000000" stroke="none" 
	d="
M976.138672,663.563904 
	C976.111328,663.107788 976.363037,662.906128 976.511841,662.957642 
	C976.687256,664.007324 976.713806,665.005554 976.613770,666.339111 
	C976.380066,665.789612 976.273071,664.904846 976.138672,663.563904 
z"/>
<path fill="#41E208" opacity="1.000000" stroke="none" 
	d="
M976.430054,499.665466 
	C976.289551,499.444366 976.265320,499.102661 976.341431,498.525513 
	C976.476624,498.708344 976.511475,499.126617 976.430054,499.665466 
z"/>
</svg>