<svg xmlns="http://www.w3.org/2000/svg" viewBox="0 0 413 512"><g transform="translate(0.000000,512.000000) scale(0.100000,-0.100000)"
fill="#F7F4EC" stroke="none">
<path d="M1980 4026 c-95 -51 -390 -210 -760 -408 -36 -19 -180 -97 -320 -174
-140 -76 -285 -154 -323 -174 -50 -26 -67 -40 -65 -53 2 -13 105 -72 353 -203
254 -134 350 -189 350 -201 0 -12 -29 -33 -85 -63 -561 -301 -620 -334 -620
-349 0 -14 183 -116 637 -353 46 -24 83 -48 83 -53 0 -9 -70 -48 -400 -223
-244 -130 -315 -171 -318 -185 -4 -18 -28 -4 763 -422 341 -180 667 -352 725
-383 l104 -55 51 27 c27 14 156 82 285 150 129 67 386 203 570 301 184 98 414
220 510 271 132 70 176 97 178 113 2 12 -1 21 -5 21 -22 0 -698 370 -701 383
-4 17 -3 18 415 238 315 166 325 174 254 206 -99 46 -681 368 -681 378 0 5 49
35 108 65 357 184 612 325 612 339 0 10 -86 62 -243 145 -133 72 -350 188
-482 259 -575 310 -868 467 -874 467 -3 -1 -58 -29 -121 -64z m418 -134 c951
-509 1222 -658 1222 -673 0 -12 -121 -81 -397 -227 -661 -350 -1107 -582
-1120 -582 -6 0 -44 18 -85 39 -120 64 -1214 639 -1330 700 -69 36 -107 61
-105 70 2 14 82 59 737 411 168 90 328 176 355 191 219 119 413 219 428 219
10 0 143 -67 295 -148z m-941 -1190 c92 -49 231 -122 308 -162 77 -40 181 -94
231 -121 50 -27 99 -49 108 -49 9 0 197 95 418 211 l401 211 46 -25 c25 -14
165 -89 311 -167 344 -185 340 -183 340 -200 0 -9 -95 -65 -253 -149 -456
-242 -1256 -661 -1262 -661 -3 0 -97 48 -208 106 -111 59 -301 158 -422 222
-121 63 -281 147 -355 187 -74 39 -224 118 -332 175 -142 74 -198 108 -198
121 0 12 65 52 228 140 326 175 372 200 417 226 52 29 30 36 222 -65z m4 -819
c170 -89 478 -251 585 -305 l60 -31 255 133 c140 73 323 169 408 213 l155 81
85 -45 c291 -150 621 -333 621 -343 0 -6 -17 -20 -37 -31 -21 -11 -76 -41
-123 -66 -47 -25 -148 -78 -225 -118 -77 -41 -153 -81 -170 -91 -26 -15 -540
-287 -865 -457 l-105 -55 -385 202 c-212 112 -475 251 -585 310 -110 58 -280
149 -378 200 -115 60 -177 98 -175 107 3 13 682 382 704 383 7 0 85 -39 175
-87z"/>
</g><g transform="translate(0.000000,512.000000) scale(0.100000,-0.100000)"
fill="#3DDC3D" stroke="none">
<path d="M983 3301 c-74 -40 -123 -72 -123 -81 1 -17 247 -153 261 -144 23 14
2 33 -86 79 -63 33 -94 55 -93 65 2 8 43 37 92 65 49 27 91 55 93 61 9 28 -31
16 -144 -45z"/>
<path d="M3102 3362 c-30 -10 -5 -34 78 -79 53 -28 90 -54 90 -63 0 -9 -37
-35 -90 -63 -98 -53 -103 -57 -86 -73 16 -15 256 114 256 139 0 9 -4 17 -9 17
-5 0 -58 28 -118 63 -60 35 -114 62 -121 59z"/>
</g><g transform="translate(0.000000,512.000000) scale(0.100000,-0.100000)"
fill="#E8B400" stroke="none">
<path d="M983 2483 c-68 -37 -123 -73 -123 -79 0 -12 203 -131 239 -141 11 -3
21 2 24 11 5 11 -18 28 -88 66 -52 28 -95 57 -95 63 0 7 41 34 90 60 66 35 90
53 90 68 0 27 -1 26 -137 -48z"/>
<path d="M3090 2532 c0 -11 30 -34 90 -67 56 -31 89 -55 88 -64 -2 -8 -42 -35
-90 -60 -59 -31 -88 -52 -88 -63 0 -10 6 -18 13 -18 22 0 242 126 245 141 2 9
-40 38 -117 82 -128 72 -141 76 -141 49z"/>
</g><g transform="translate(0.000000,512.000000) scale(0.100000,-0.100000)"
fill="#E0303C" stroke="none">
<path d="M985 1665 c-66 -35 -120 -70 -120 -77 0 -12 229 -148 248 -148 33 0
-12 42 -90 85 -51 28 -93 55 -93 61 0 6 42 33 92 61 52 27 94 57 96 66 5 25
-1 22 -133 -48z"/>
<path d="M3090 1716 c0 -8 43 -38 95 -67 82 -45 118 -79 86 -79 -20 0 -181
-103 -181 -116 0 -21 11 -18 101 33 46 25 101 56 121 67 45 25 47 38 11 57
-16 7 -69 38 -119 66 -96 56 -114 62 -114 39z"/>
</g></svg>