<svg xmlns="http://www.w3.org/2000/svg" viewBox="0 0 859 876"><g transform="translate(0.000000,876.000000) scale(0.100000,-0.100000)"
fill="#3DDC3D" stroke="none">
<path d="M4245 8628 c-16 -6 -34 -14 -40 -18 -5 -4 -334 -171 -730 -370 -2787
-1403 -3137 -1580 -3165 -1606 -30 -30 -33 -86 -5 -114 30 -28 1615 -815 1753
-870 17 -7 32 -16 32 -21 0 -5 6 -9 14 -9 14 0 183 -80 659 -314 165 -80 300
-146 302 -146 1 0 182 -88 401 -196 220 -108 417 -203 439 -212 22 -8 44 -22
48 -29 4 -7 14 -13 21 -13 7 0 74 -29 148 -65 81 -39 149 -65 168 -65 19 0 87
26 168 65 74 36 139 65 144 65 6 0 23 11 40 25 16 14 35 25 42 25 8 0 112 48
232 106 121 59 282 137 359 174 555 268 725 350 835 402 115 55 402 194 493
239 22 10 43 19 48 19 6 0 19 9 30 19 12 11 31 22 44 25 13 3 162 74 332 157
1058 520 1232 608 1242 627 15 28 13 83 -3 104 -26 34 -3960 2009 -3999 2007
-12 0 -35 -5 -52 -11z m1724 -927 c2089 -1046 2205 -1106 2209 -1123 2 -10
-102 -66 -320 -173 -704 -346 -1495 -731 -1978 -963 -74 -35 -189 -90 -255
-122 -66 -32 -315 -153 -554 -269 -238 -116 -435 -211 -437 -211 -2 0 -76 -36
-165 -80 -88 -44 -168 -80 -176 -80 -17 0 -43 12 -433 203 -643 314 -751 367
-754 367 -2 0 -165 79 -362 176 -197 97 -413 202 -479 234 -66 32 -190 91
-275 133 -85 41 -240 116 -345 166 -614 297 -1225 606 -1223 619 3 14 223 127
1988 1014 1145 576 1675 844 1800 911 36 20 69 36 74 36 5 1 764 -377 1685
-838z"/>
</g><g transform="translate(0.000000,876.000000) scale(0.100000,-0.100000)"
fill="#E8B400" stroke="none">
<path d="M1255 5977 l-60 -32 0 -80 0 -80 37 -20 c38 -20 38 -21 38 -82 l0
-62 45 -27 45 -26 -1 -541 0 -542 -92 -46 c-138 -68 -571 -291 -747 -384 -85
-45 -206 -108 -268 -139 -132 -68 -157 -102 -121 -168 8 -15 763 -398 785
-398 2 0 162 -78 356 -174 194 -96 382 -188 418 -206 36 -18 619 -309 1295
-648 l1230 -617 65 1 65 0 800 398 c440 219 960 476 1155 572 195 96 373 183
395 195 159 82 282 143 495 245 135 64 427 207 650 317 223 110 443 217 490
239 104 49 140 80 140 123 0 55 1 55 -460 293 -96 50 -267 138 -380 196 -113
59 -249 128 -302 154 l-97 47 0 546 -1 547 30 12 c42 17 53 35 52 83 -3 58 4
73 39 87 40 17 49 37 49 113 0 73 -8 84 -83 117 l-46 21 -41 -21 c-51 -26 -50
-31 5 -53 76 -32 65 -42 -150 -152 l-194 -100 -63 33 c-35 17 -70 32 -77 32
-22 0 -81 -32 -81 -44 0 -13 201 -116 226 -116 8 0 82 34 163 75 170 86 171
86 171 43 -1 -33 -3 -34 -166 -112 l-164 -80 -151 74 c-155 76 -178 82 -229
55 -37 -19 -38 -17 10 -49 l40 -26 0 -319 c0 -409 1 -405 -80 -363 -19 10 -78
41 -130 69 -562 297 -538 286 -570 274 -50 -17 -73 -36 -58 -49 18 -14 545
-293 705 -372 l131 -65 1 -370 0 -370 -42 -20 c-41 -19 -42 -22 -51 -82 -8
-50 -14 -64 -30 -69 -45 -14 -56 -34 -56 -105 0 -62 2 -69 28 -87 57 -40 453
-232 478 -232 23 0 457 214 492 242 7 7 12 36 12 78 0 73 -16 100 -58 100 -19
0 -22 6 -22 39 0 79 -10 103 -51 120 l-39 16 0 184 c0 179 0 183 20 178 17 -4
982 -501 1062 -546 15 -9 28 -21 28 -26 0 -6 -60 -39 -132 -75 -73 -35 -346
-169 -606 -297 -260 -128 -474 -233 -476 -233 -8 0 -812 -397 -2338 -1154
-273 -135 -501 -246 -507 -246 -6 0 -322 156 -703 346 -854 427 -2458 1224
-2463 1224 -3 0 -143 69 -312 153 -169 84 -363 179 -430 211 -68 32 -123 64
-123 71 0 7 51 38 113 70 61 32 117 61 122 65 6 4 123 65 260 135 138 70 327
167 421 216 94 49 176 89 182 89 9 0 12 -51 12 -184 l0 -184 -25 -6 c-48 -12
-65 -40 -65 -106 0 -56 -1 -60 -23 -60 -43 0 -58 -30 -55 -106 l3 -68 45 -26
c124 -72 423 -220 446 -220 29 0 483 224 501 248 7 9 13 43 13 77 0 67 -17 95
-57 95 -17 0 -21 10 -29 68 -9 66 -10 67 -51 87 l-42 20 -1 373 c0 299 3 372
13 372 7 0 76 33 153 73 498 257 694 361 694 367 0 4 -22 17 -49 29 l-49 23
-103 -55 c-323 -170 -630 -327 -644 -327 -13 0 -15 44 -15 358 l0 358 35 17
c47 22 44 42 -8 62 l-43 16 -154 -75 c-85 -42 -157 -76 -162 -76 -4 0 -80 34
-168 77 -159 76 -160 76 -160 110 0 18 3 33 6 33 4 0 73 -34 155 -75 81 -41
154 -75 162 -75 15 0 247 109 247 116 0 2 -23 15 -50 28 l-50 24 -68 -34 c-37
-19 -75 -33 -85 -30 -39 10 -367 192 -367 204 0 7 20 22 45 34 55 27 55 29 6
56 -47 27 -34 28 -106 -11z m675 -1235 l0 -787 -115 -58 c-63 -31 -121 -57
-128 -57 -6 0 -63 26 -124 57 l-113 58 0 783 c0 693 2 782 15 782 9 0 56 -20
105 -45 111 -56 123 -56 240 5 52 27 101 49 108 49 9 1 12 -163 12 -787z
m5210 0 l0 -787 -115 -58 c-63 -31 -122 -57 -131 -57 -9 0 -65 25 -125 57
l-109 56 0 784 c0 905 -16 811 123 738 106 -56 120 -56 237 5 52 27 101 49
108 49 9 1 12 -163 12 -787z m-5603 -929 l152 -78 153 78 c170 86 191 91 186
50 -3 -25 -19 -36 -173 -112 l-170 -84 -162 84 c-151 78 -163 86 -163 111 0
39 7 37 177 -49z m5177 14 c198 -103 162 -101 335 -13 167 85 181 89 181 48 0
-26 -11 -33 -168 -111 l-168 -84 -165 84 c-147 75 -164 87 -167 112 -5 40 15
36 152 -36z m-4606 -89 c-3 -32 -9 -36 -209 -137 l-206 -105 -45 20 c-24 10
-117 57 -206 104 -149 78 -162 87 -162 113 0 40 12 36 209 -63 98 -49 188 -90
200 -90 13 0 106 43 207 95 208 107 217 109 212 63z m4581 -63 c104 -52 198
-95 209 -95 12 0 104 43 205 95 102 52 190 95 196 95 6 0 11 -15 11 -32 0 -33
-2 -34 -199 -135 -109 -57 -205 -103 -212 -103 -8 0 -105 46 -216 102 -201
102 -203 103 -203 136 0 17 5 32 10 32 6 0 96 -43 199 -95z"/>
<path d="M3829 4737 c-34 -23 -34 -23 -34 -102 l0 -80 37 -20 c38 -20 38 -21
38 -82 0 -64 18 -91 71 -108 19 -6 19 -26 19 -759 l0 -754 -30 -12 c-45 -19
-60 -46 -60 -112 0 -54 -2 -58 -23 -58 -40 0 -57 -30 -57 -97 0 -76 -14 -65
267 -209 l233 -119 246 125 c271 138 269 136 258 224 -8 62 -18 76 -55 76 -29
0 -29 0 -29 63 0 68 -8 82 -62 105 l-28 12 0 754 c1 730 1 755 20 761 52 16
70 44 70 106 0 58 0 59 39 78 34 18 39 26 44 63 11 78 -3 120 -48 145 -50 28
-65 28 -99 2 -33 -26 -33 -32 4 -46 17 -6 30 -17 30 -25 0 -15 -360 -198 -391
-198 -27 0 -398 182 -398 196 -1 6 15 18 34 27 41 20 38 38 -9 55 -44 16 -48
16 -87 -11z m300 -307 c76 -38 150 -70 163 -70 13 0 88 32 167 70 166 81 161
80 161 37 0 -33 -1 -34 -161 -111 -89 -42 -167 -76 -174 -74 -7 2 -83 37 -169
78 -153 74 -155 76 -156 108 0 45 8 43 169 -38z m41 -190 c121 -61 118 -61
234 -5 52 25 102 45 110 45 15 0 16 -76 14 -752 l-3 -751 -116 -59 -117 -59
-121 60 -121 61 0 755 c0 506 3 755 10 755 6 0 55 -22 110 -50z m-45 -1595
c78 -41 151 -75 163 -75 11 0 84 32 161 70 157 78 171 81 171 45 0 -22 -18
-34 -165 -107 l-165 -83 -165 84 c-156 79 -165 84 -165 112 0 40 3 39 165 -46z
m-200 -59 c11 -7 98 -53 194 -101 l175 -88 187 97 c209 107 219 110 219 66 0
-29 -7 -33 -206 -133 l-205 -102 -205 105 c-203 104 -204 105 -204 137 0 36
13 42 45 19z"/>
</g><g transform="translate(0.000000,876.000000) scale(0.100000,-0.100000)"
fill="#E0303C" stroke="none">
<path d="M1485 2929 c-71 -39 -393 -203 -715 -366 -632 -320 -637 -323 -642
-356 -12 -71 -4 -76 717 -424 127 -61 401 -196 610 -298 789 -389 1108 -545
1111 -545 1 0 226 -110 500 -245 273 -135 498 -245 499 -245 2 0 137 -66 301
-146 353 -172 389 -187 429 -181 17 3 177 76 355 162 179 87 399 194 490 238
91 44 244 118 340 164 535 260 675 327 865 418 107 51 222 107 829 404 159 77
290 141 291 141 2 0 173 84 381 186 209 102 422 206 474 231 116 55 140 75
140 120 0 23 -7 41 -22 54 -13 11 -353 186 -756 389 l-734 370 -52 -26 -52
-25 740 -374 c408 -205 742 -379 744 -387 3 -13 -203 -118 -708 -361 -210
-101 -457 -222 -795 -387 -137 -67 -299 -146 -360 -175 -60 -29 -182 -87 -270
-130 -88 -42 -223 -108 -300 -145 -323 -157 -505 -245 -770 -375 -154 -75
-325 -159 -380 -185 -55 -26 -180 -87 -279 -134 -98 -47 -182 -86 -187 -86 -9
0 -162 73 -564 270 -148 72 -322 157 -385 187 -63 31 -355 175 -649 320 -294
144 -535 263 -537 263 -1 0 -226 110 -500 245 -273 135 -498 245 -499 245 -2
0 -139 67 -306 148 -167 82 -368 179 -447 217 -91 44 -142 74 -140 83 2 7 174
100 383 206 851 430 1085 550 1085 557 0 7 -85 50 -97 48 -5 -1 -66 -32 -138
-70z"/>
</g></svg>