<svg xmlns="http://www.w3.org/2000/svg" viewBox="0 0 830 719"><g transform="translate(0.000000,719.000000) scale(0.100000,-0.100000)"
fill="#3DDC3D" stroke="none">
<path d="M3900 6978 c-534 -236 -1886 -837 -2680 -1193 -217 -97 -543 -242
-724 -322 -343 -153 -366 -167 -366 -218 0 -46 8 -51 295 -183 143 -66 303
-140 355 -165 52 -24 131 -61 175 -82 89 -42 265 -125 455 -216 69 -33 190
-90 270 -127 l145 -68 2 -512 c2 -600 -10 -545 127 -621 128 -71 978 -488
1327 -651 594 -279 935 -308 1434 -123 170 63 890 404 1477 699 207 104 250
130 264 155 14 27 15 94 15 535 0 387 2 505 12 511 40 25 324 153 339 153 17
0 18 -44 18 -962 1 -1453 1 -2138 0 -2295 l0 -143 -33 -13 c-103 -43 -138
-179 -72 -279 34 -50 34 -47 -42 -199 l-68 -134 0 -188 c0 -156 3 -189 15
-197 8 -5 118 -10 247 -10 225 0 233 1 243 21 8 14 10 81 8 198 l-3 178 -67
137 c-74 149 -76 157 -51 177 51 43 67 149 30 214 -20 35 -39 52 -101 90 -18
11 -17 -50 -16 2443 l0 1023 117 56 c65 30 136 63 158 73 147 64 933 435 946
447 23 20 30 63 14 93 -15 27 -32 35 -715 340 -212 94 -423 189 -470 210 -47
21 -164 73 -260 115 -96 43 -218 97 -270 120 -52 24 -174 78 -270 120 -168 74
-368 163 -840 375 -47 21 -179 80 -295 131 -115 50 -307 134 -425 186 -413
182 -441 193 -478 192 -24 0 -111 -33 -242 -91z m493 -112 c127 -57 441 -197
697 -311 256 -114 535 -238 620 -275 163 -72 537 -236 680 -300 313 -138 1552
-691 1583 -706 20 -10 37 -25 37 -33 0 -18 -324 -172 -1685 -803 -225 -104
-543 -252 -705 -328 -491 -229 -1327 -616 -1408 -650 -32 -14 -62 -20 -80 -17
-15 3 -173 75 -352 160 -179 85 -424 200 -545 257 -121 57 -305 143 -410 193
-104 49 -233 109 -285 132 -85 38 -280 129 -490 228 -294 138 -1438 673 -1638
765 -82 38 -122 62 -120 71 2 8 154 82 358 172 195 87 384 171 420 188 36 16
218 97 405 181 187 83 383 171 435 195 160 72 343 154 880 390 283 125 619
273 745 330 127 56 293 130 370 164 77 34 158 70 180 81 59 28 56 29 308 -84z
m-2329 -2572 c67 -31 245 -114 396 -184 281 -130 584 -272 1065 -500 606 -287
574 -273 635 -268 50 5 208 77 1867 849 188 87 346 159 352 159 8 0 11 -140
11 -473 0 -439 -1 -475 -18 -489 -49 -44 -1417 -700 -1642 -788 -448 -174
-772 -168 -1230 25 -234 99 -1451 688 -1557 754 l-33 21 0 422 c0 428 5 528
23 528 6 0 65 -25 131 -56z m4872 -3249 c75 -52 35 -175 -56 -175 -81 0 -118
118 -53 170 30 23 80 26 109 5z m39 -402 l70 -137 4 -118 c5 -165 4 -168 -64
-168 l-55 0 0 126 c0 133 -8 164 -42 164 -50 0 -58 -23 -58 -162 l0 -128 -55
0 -55 0 0 135 c0 152 2 160 88 323 74 141 78 141 167 -35z"/>
</g><g transform="translate(0.000000,719.000000) scale(0.100000,-0.100000)"
fill="#E8B400" stroke="none">
<path d="M1720 4252 c-41 -21 -102 -49 -135 -63 -33 -15 -188 -84 -345 -154
-157 -70 -366 -163 -465 -207 -172 -76 -233 -103 -495 -217 -133 -57 -160 -78
-160 -119 0 -43 15 -52 250 -155 365 -161 759 -337 885 -397 44 -20 172 -79
285 -130 113 -51 306 -139 430 -195 124 -57 349 -159 500 -228 303 -138 678
-309 985 -452 110 -51 223 -103 250 -115 28 -12 93 -43 145 -67 194 -91 251
-113 298 -113 45 0 121 31 400 162 252 118 846 389 1357 618 298 134 572 259
621 284 29 14 57 26 62 26 6 0 51 20 100 44 50 24 104 48 121 54 29 10 31 14
31 61 0 60 -8 63 -79 26 -27 -13 -134 -62 -237 -108 -104 -47 -295 -132 -424
-190 -129 -57 -370 -167 -535 -242 -400 -184 -540 -248 -665 -305 -58 -26
-249 -114 -424 -194 -176 -80 -324 -146 -329 -146 -11 0 -89 35 -427 190 -489
224 -608 280 -725 335 -100 47 -583 268 -985 450 -52 24 -124 56 -160 73 -36
16 -218 98 -405 182 -187 84 -459 207 -605 272 -146 66 -331 149 -413 186
-141 63 -169 85 -130 99 20 7 839 370 1133 503 63 28 174 77 245 107 159 69
155 66 155 119 0 55 -9 56 -110 6z"/>
<path d="M6470 4246 c0 -25 6 -48 13 -53 22 -14 338 -153 348 -153 14 0 11 86
-3 97 -17 14 -334 153 -347 153 -6 0 -11 -20 -11 -44z"/>
<path d="M6930 4040 c0 -39 4 -52 18 -57 9 -3 87 -38 172 -76 85 -38 200 -88
255 -112 55 -24 186 -82 290 -130 105 -47 227 -102 273 -122 45 -20 82 -42 82
-49 0 -18 -49 -42 -340 -169 -41 -18 -109 -48 -150 -68 -41 -19 -156 -71 -255
-115 -99 -44 -217 -97 -262 -117 l-83 -38 0 -48 c0 -27 4 -49 10 -49 5 0 74
30 152 66 79 37 181 83 228 104 47 21 168 75 270 120 102 45 239 106 305 135
295 129 303 134 279 204 -9 25 -225 130 -645 313 -46 20 -197 86 -335 147
-138 61 -254 111 -258 111 -3 0 -6 -23 -6 -50z"/>
<path d="M6840 2563 c-3 -29 -1 -48 3 -44 5 5 7 28 5 52 l-3 44 -5 -52z"/>
<path d="M6838 1493 c6 -65 10 -70 11 -15 0 28 -3 52 -7 52 -4 0 -6 -17 -4
-37z"/>
</g><g transform="translate(0.000000,719.000000) scale(0.100000,-0.100000)"
fill="#E0303C" stroke="none">
<path d="M1655 2694 c-72 -33 -396 -182 -1005 -459 -352 -160 -380 -177 -380
-225 0 -41 15 -50 290 -173 246 -110 1357 -612 1470 -664 297 -135 744 -339
865 -393 83 -37 229 -104 325 -148 543 -247 825 -373 870 -388 74 -24 4 -51
820 319 282 127 839 379 1195 539 110 50 252 114 315 142 63 29 184 83 268
121 l152 69 0 44 c0 55 1 56 -193 -35 -170 -78 -709 -323 -967 -438 -102 -46
-234 -105 -295 -133 -60 -27 -177 -80 -260 -117 -82 -36 -215 -96 -295 -132
-489 -221 -570 -257 -618 -279 -29 -13 -59 -24 -66 -24 -8 0 -108 42 -223 94
-114 52 -458 206 -763 344 -305 137 -679 306 -830 375 -568 258 -1148 521
-1230 557 -47 21 -211 95 -365 165 -154 69 -292 131 -307 137 -16 5 -28 15
-28 22 0 7 78 48 173 91 327 149 443 202 702 319 143 65 317 145 387 177 70
32 139 61 154 65 l27 7 -34 16 c-85 40 -79 40 -154 5z"/>
<path d="M6530 2703 l-54 -24 156 -73 c216 -103 219 -103 204 -23 -6 31 -13
36 -129 88 l-123 56 -54 -24z"/>
<path d="M6930 2515 c0 -42 2 -45 43 -63 811 -367 922 -419 925 -434 2 -9 -53
-39 -160 -87 -243 -109 -572 -258 -668 -301 -47 -22 -97 -44 -112 -49 -24 -9
-28 -16 -28 -50 0 -65 -42 -78 425 132 284 127 606 273 637 287 37 18 54 60
36 96 -13 28 -14 28 -448 227 -507 232 -629 287 -639 287 -6 0 -11 -19 -11
-45z"/>
</g></svg>