<svg xmlns="http://www.w3.org/2000/svg" viewBox="0 0 1402 1122">
<path fill="#57EF03" opacity="1.000000" stroke="none" 
	d="
M668.057068,516.825012 
	C654.814087,510.211823 641.617554,503.503784 628.319702,497.002777 
	C584.648254,475.652802 540.944397,454.369354 497.233978,433.099243 
	C495.012360,432.018219 492.613892,431.300629 489.780212,430.190430 
	C486.489990,428.662720 483.717316,427.358429 480.719604,425.772125 
	C477.984009,424.487549 475.473419,423.485016 472.802826,422.204773 
	C469.284332,420.486176 465.925903,419.045319 462.365845,417.317596 
	C453.490570,412.612701 444.858398,408.110443 436.127563,403.808411 
	C430.949646,401.257080 425.616058,399.021545 420.187683,396.347778 
	C417.302979,394.710205 414.583099,393.368866 411.863220,392.027557 
	C379.969360,376.143036 348.068512,360.272430 316.197784,344.341553 
	C314.150208,343.318024 311.950348,342.164917 310.488403,340.489838 
	C306.866150,336.339661 308.539490,330.470795 313.976379,327.699738 
	C335.197510,316.883881 356.428528,306.087036 377.691681,295.354095 
	C438.207977,264.807465 498.749298,234.310379 559.266541,203.765610 
	C606.533508,179.908661 653.792297,156.035492 701.017029,132.095139 
	C706.684631,129.222000 711.951904,129.224274 717.665588,132.107773 
	C753.041687,149.960709 788.489624,167.671097 823.923401,185.409500 
	C883.046326,215.006805 942.208679,244.525391 1001.291138,274.203156 
	C1035.672852,291.473511 1069.925171,309.001862 1104.254517,326.376801 
	C1108.026978,328.286133 1111.113770,330.557526 1110.976440,335.331665 
	C1110.842407,339.994598 1107.879883,342.264709 1104.034668,344.158844 
	C1072.064331,359.907196 1040.141724,375.752716 1007.537964,391.797028 
	C1004.164795,393.556671 1001.458374,395.088135 998.392029,396.667664 
	C983.853943,403.759247 969.675781,410.802765 955.137512,417.859863 
	C951.768066,419.399933 948.758728,420.926422 945.393555,422.512848 
	C942.731995,423.744263 940.426208,424.915802 937.750366,426.106262 
	C934.769226,427.595551 932.158203,429.065887 929.547241,430.536255 
	C922.283447,433.756592 914.923340,436.777496 907.771118,440.229218 
	C855.231750,465.585205 802.733948,491.027374 749.624268,516.754578 
	C746.348267,518.532410 743.671143,519.998169 740.597595,521.428162 
	C732.119690,525.182678 723.962830,528.822510 715.985291,532.820312 
	C711.296265,535.170044 707.028137,535.226868 702.286255,532.900818 
	C693.685974,528.682068 684.888733,524.865051 675.954468,520.617065 
	C673.175842,519.177551 670.616455,518.001282 668.057068,516.825012 
M748.446899,507.079895 
	C865.879944,450.121185 983.312927,393.162476 1101.642700,335.768799 
	C1099.318359,334.376404 1098.108521,333.547363 1096.811523,332.890015 
	C1069.762939,319.181427 1042.749268,305.402863 1015.638550,291.817902 
	C960.081238,263.978546 904.439697,236.307022 848.891907,208.448730 
	C803.782959,185.825668 758.749023,163.052628 713.722900,140.264908 
	C710.589294,138.678970 708.005676,138.628113 704.848755,140.302002 
	C692.197388,147.010239 679.461792,153.564545 666.669617,160.001572 
	C609.678162,188.679901 552.627930,217.241547 495.653778,245.954147 
	C438.367737,274.823944 381.145844,303.821075 323.900452,332.771484 
	C322.398865,333.530853 320.950470,334.395355 319.178833,335.376038 
	C320.203461,336.103516 320.575623,336.451904 321.013336,336.666626 
	C375.596283,363.439240 430.154877,390.261719 484.781403,416.945099 
	C524.422974,436.308838 564.168457,455.459747 603.842163,474.757904 
	C637.522522,491.140778 671.188049,507.554504 704.791504,524.093994 
	C708.001404,525.673889 710.481750,525.531860 713.609497,523.962646 
	C724.918945,518.288513 736.379456,512.915405 748.446899,507.079895 
z"/>
<path fill="#F00F20" opacity="1.000000" stroke="none" 
	d="
M975.357483,692.904663 
	C994.913025,702.923340 1014.430725,713.016602 1034.032959,722.942871 
	C1062.558838,737.388000 1091.140747,751.722717 1119.712891,766.076111 
	C1123.133301,767.794312 1126.078857,769.754761 1126.147583,774.134216 
	C1126.219971,778.748657 1123.177246,780.891846 1119.579224,782.640991 
	C1089.020874,797.496338 1058.466553,812.359863 1027.904541,827.207520 
	C987.003113,847.078430 946.106995,866.960449 905.188171,886.795715 
	C850.795837,913.162231 796.383179,939.487000 741.980957,965.833313 
	C733.590576,969.896729 725.067871,973.717041 716.870972,978.140198 
	C710.840759,981.394348 705.330933,981.239685 699.304993,978.298767 
	C672.222473,965.081482 645.002136,952.146362 617.934143,938.899658 
	C557.639221,909.392151 497.415253,879.739746 437.144165,850.183472 
	C391.376160,827.739441 345.586761,805.339050 299.784393,782.965271 
	C296.023773,781.128235 292.580170,779.126770 292.598633,774.353210 
	C292.617065,769.587646 296.162964,767.498718 299.814728,765.652161 
	C327.157196,751.825928 354.541992,738.082947 381.845703,724.180725 
	C401.871521,713.984192 421.794678,703.586060 442.401001,693.105957 
	C446.155365,694.575317 449.272339,696.216431 452.118439,698.112671 
	C402.486847,723.568115 353.126160,748.768616 302.810455,774.456604 
	C309.261292,777.564758 314.515839,780.059631 319.738983,782.618713 
	C392.137695,818.090027 464.515717,853.603699 536.932922,889.037170 
	C592.425476,916.189514 647.981079,943.213135 703.449524,970.414490 
	C706.837219,972.075745 709.545776,971.970398 712.827148,970.373291 
	C779.011902,938.158386 845.239868,906.032349 911.448914,873.867371 
	C976.771179,842.133240 1042.083008,810.377625 1107.394531,778.621582 
	C1109.952881,777.377625 1112.461426,776.031128 1115.790771,774.323242 
	C1107.661255,770.233582 1100.538818,766.648193 1093.414185,763.066895 
	C1050.568970,741.530151 1007.723389,719.994324 964.980774,698.151123 
	C968.508240,696.197571 971.932861,694.551086 975.357483,692.904663 
z"/>
<path fill="#F2C004" opacity="1.000000" stroke="none" 
	d="
M975.640625,692.646057 
	C971.932861,694.551086 968.508240,696.197571 964.602661,698.050049 
	C934.093262,712.975952 904.024780,727.614868 874.045227,742.433655 
	C821.638489,768.337952 769.267639,794.315002 716.936462,820.371582 
	C710.718018,823.467896 705.028076,823.332825 698.852905,820.249268 
	C625.705688,783.722717 552.512146,747.289001 479.313385,710.865662 
	C470.390411,706.425659 461.366455,702.188660 452.389313,697.857605 
	C449.272339,696.216431 446.155365,694.575317 442.693726,692.870361 
	C415.229218,679.373413 388.119202,665.920410 360.986298,652.513672 
	C340.104065,642.195435 319.208923,631.902893 298.278900,621.682068 
	C294.896759,620.030457 292.291962,617.946289 292.203491,613.930115 
	C292.111237,609.744202 294.578552,607.352844 298.137878,605.515869 
	C326.971039,590.635315 355.759247,575.667786 384.558716,560.721924 
	C394.263550,555.685486 403.961334,550.635315 413.792023,545.524048 
	C415.651306,554.449402 415.610840,554.606934 408.437256,558.324951 
	C374.468842,575.930664 340.489929,593.515930 306.520477,611.119507 
	C305.207245,611.800049 303.952301,612.593079 302.164673,613.625671 
	C309.740204,617.335876 316.882660,620.802185 323.997925,624.323547 
	C405.567749,664.692688 487.156372,705.024048 568.691284,745.463623 
	C614.056519,767.963806 659.314697,790.679810 704.701172,813.136841 
	C706.558228,814.055664 709.638550,814.140747 711.470032,813.237610 
	C795.845581,771.628418 880.112671,729.799500 964.466614,688.146362 
	C1013.853943,663.759399 1063.365845,639.624573 1112.821167,615.375366 
	C1113.859741,614.866150 1114.893311,614.346558 1116.773804,613.412109 
	C1104.301636,606.892883 1092.463989,600.658813 1080.584351,594.505493 
	C1056.948608,582.262634 1033.357544,569.929504 1009.577576,557.972473 
	C1005.342712,555.843140 1003.488770,553.454712 1004.261475,548.901184 
	C1004.424927,547.937805 1004.285156,546.922974 1004.285156,545.102478 
	C1007.045593,546.428833 1009.399719,547.482971 1011.685059,548.669495 
	C1047.705688,567.371338 1083.701904,586.120117 1119.754028,604.760986 
	C1123.560425,606.729065 1126.579102,608.939514 1126.557983,613.658386 
	C1126.537598,618.219055 1123.509766,620.292236 1119.867188,622.065308 
	C1077.986938,642.452942 1036.128296,662.884827 994.269531,683.316528 
	C988.138977,686.308960 982.038208,689.362366 975.640625,692.646057 
z"/>
<path fill="#F0C006" opacity="1.000000" stroke="none" 
	d="
M740.993958,521.463928 
	C743.671143,519.998169 746.348267,518.532410 749.324646,517.051392 
	C750.033691,517.315308 750.420288,517.639099 750.856873,517.867371 
	C758.666077,521.951111 761.161865,527.005798 758.768738,535.463257 
	C758.250916,537.293152 755.913696,539.059631 753.994751,539.933167 
	C751.294189,541.162354 750.180359,542.647583 750.517822,545.602234 
	C751.168091,551.295837 750.381226,556.270264 743.715027,558.189636 
	C742.895142,558.425781 742.015930,560.212036 742.014160,561.281311 
	C741.930603,610.931152 741.941528,660.581177 741.941528,710.749695 
	C753.243103,711.947449 750.242859,720.714111 750.780090,728.140747 
	C754.603088,727.880005 758.660950,727.956604 758.843811,732.917297 
	C759.250061,743.939087 759.944763,744.231201 753.270203,747.507019 
	C740.121338,753.960327 727.098267,760.676086 714.127197,767.481812 
	C710.504639,769.382629 707.445129,769.359558 703.818787,767.441406 
	C690.570496,760.433655 677.184326,753.686462 663.852173,746.837097 
	C659.339172,744.518616 658.055969,740.376587 659.438354,732.941772 
	C660.231995,728.673767 663.387878,728.061340 667.656372,728.032227 
	C667.656372,725.201172 667.828613,722.428345 667.615845,719.685303 
	C667.298828,715.597961 669.005554,712.613098 672.763367,711.586365 
	C676.476501,710.571960 676.594971,708.183838 676.593323,705.239502 
	C676.568848,661.410583 676.574646,617.581604 676.571960,573.752686 
	C676.571838,571.586304 676.355347,569.397278 676.592407,567.257935 
	C677.166626,562.076660 676.563354,558.031006 670.601318,555.933411 
	C668.968323,555.358887 667.785034,551.321350 667.751160,548.854370 
	C667.686279,544.142761 667.814392,540.027283 661.992065,538.480530 
	C660.785950,538.160034 659.581970,535.727478 659.388733,534.144836 
	C659.008484,531.030518 659.199829,527.820496 659.406128,524.666504 
	C659.724487,519.799194 664.286194,519.302368 667.704712,517.052734 
	C670.616455,518.001282 673.175842,519.177551 675.758728,520.928040 
	C672.983093,523.043335 670.183899,524.584412 666.760864,526.468994 
	C680.806946,533.488464 693.954041,540.099060 707.164062,546.581238 
	C708.181580,547.080505 709.862122,547.120239 710.864075,546.624695 
	C724.195679,540.030762 737.460999,533.302795 751.516846,526.218201 
	C747.558228,524.429688 744.276123,522.946838 740.993958,521.463928 
M733.743591,619.443542 
	C733.743591,600.759888 733.743591,582.076233 733.743591,562.639404 
	C726.176636,566.316956 719.904846,569.768433 713.298828,572.371887 
	C710.751587,573.375793 707.114807,573.276428 704.549011,572.247314 
	C697.991516,569.617065 691.756958,566.181641 685.208313,562.977783 
	C685.039490,564.034424 684.895874,564.514465 684.895630,564.994568 
	C684.870422,613.963623 684.825317,662.932861 684.974609,711.901367 
	C684.979553,713.534912 686.581848,715.821106 688.082092,716.677246 
	C694.146240,720.138000 700.404480,723.281067 706.731445,726.241333 
	C708.097046,726.880249 710.285034,726.793335 711.683838,726.149414 
	C717.574280,723.437622 723.208862,720.160278 729.138489,717.546936 
	C732.771179,715.945862 733.739136,713.676758 733.724365,709.867249 
	C733.608826,680.052979 733.709839,650.237915 733.743591,619.443542 
M729.398743,750.963745 
	C734.719666,748.210083 740.030396,745.436340 745.364319,742.708008 
	C751.828857,739.401428 751.950684,739.168274 750.333923,731.671265 
	C740.452942,736.786438 730.234497,741.333252 720.817383,747.172424 
	C712.365173,752.413147 705.269531,751.967712 696.978516,746.854797 
	C687.720093,741.145325 677.662476,736.731750 667.226990,731.382141 
	C668.011536,735.325806 665.636658,738.957031 670.150208,741.195740 
	C682.374695,747.259094 694.448364,753.626831 706.681458,759.671997 
	C708.024353,760.335632 710.241882,760.197266 711.664856,759.561096 
	C717.432678,756.982910 723.048523,754.064758 729.398743,750.963745 
M682.796326,544.631042 
	C680.612427,543.614197 678.428467,542.597290 676.158997,541.540527 
	C674.775330,547.050964 675.773132,550.257324 681.204346,552.423645 
	C689.681274,555.804749 697.665955,560.402100 706.010376,564.147217 
	C707.758789,564.931946 710.458252,564.920105 712.214905,564.139709 
	C720.723572,560.359558 728.855408,555.654175 737.529968,552.351379 
	C743.300598,550.154297 743.315491,546.733093 742.381470,541.554443 
	C732.462891,546.325500 722.862427,550.811218 713.399048,555.569580 
	C710.218750,557.168640 707.577515,557.026245 704.485474,555.393616 
	C697.577332,551.745972 690.506287,548.406677 682.796326,544.631042 
M730.905212,725.313171 
	C727.971252,726.875854 724.817993,728.133545 722.143188,730.056580 
	C713.020508,736.615479 704.440308,735.810181 695.306335,729.682495 
	C689.365967,725.697388 682.562012,722.999756 676.035339,719.669373 
	C674.555054,724.911438 675.880676,727.642395 680.467712,729.655090 
	C689.130554,733.456299 697.422607,738.095276 706.006226,742.090637 
	C707.650940,742.856262 710.230347,742.928101 711.863037,742.185974 
	C720.633118,738.199280 729.111450,733.554077 737.956421,729.755493 
	C742.590942,727.765198 743.920105,725.072876 742.411987,720.099670 
	C738.772156,721.752441 735.180969,723.383179 730.905212,725.313171 
z"/>
<path fill="#EFC005" opacity="1.000000" stroke="none" 
	d="
M411.590820,392.323608 
	C414.583099,393.368866 417.302979,394.710205 419.869629,396.577148 
	C415.939697,398.972443 412.163025,400.842072 407.608368,403.096863 
	C417.493591,408.384125 426.398132,413.223206 435.372498,417.929199 
	C449.071808,425.112946 449.092285,425.073883 462.567474,417.604462 
	C465.925903,419.045319 469.284332,420.486176 472.447906,422.328979 
	C465.970459,425.785583 459.557770,428.605316 453.455719,431.985809 
	C449.971741,433.915894 447.155121,433.841705 443.721466,432.001831 
	C434.539978,427.082001 425.195557,422.466217 415.840790,417.691315 
	C414.496643,424.484680 414.658295,425.373596 417.742523,426.884949 
	C427.300934,431.568909 436.847992,436.278961 446.487823,440.790131 
	C447.731415,441.372040 449.733368,441.342468 450.980286,440.748566 
	C461.023071,435.965210 470.969086,430.978607 480.944672,426.054138 
	C483.717316,427.358429 486.489990,428.662720 489.420776,430.283630 
	C482.171722,433.403076 481.202728,439.039612 481.252533,446.314819 
	C481.567291,492.302979 481.414337,538.294373 481.421722,584.284729 
	C481.421967,585.950623 481.608368,587.625610 481.488464,589.280396 
	C481.295593,591.942383 482.001862,593.420715 484.994263,594.054016 
	C489.224213,594.949219 491.505249,597.745239 491.033356,602.415649 
	C490.800232,604.723083 490.992828,607.073547 490.992828,609.683411 
	C494.804810,610.187378 499.291016,610.241272 499.215332,615.497986 
	C499.136719,620.956116 501.291779,626.878357 493.652771,630.309082 
	C480.772186,636.093872 468.296265,642.813782 455.844482,649.502197 
	C450.922821,652.145813 446.699707,652.231567 441.794250,649.560608 
	C429.374054,642.798035 416.745422,636.419067 404.232880,629.824646 
	C398.839294,626.982117 397.519043,624.030762 399.497345,615.332520 
	C400.075592,612.790039 403.661438,610.931641 405.868774,608.759644 
	C406.421509,609.106995 406.974213,609.454346 407.526947,609.801697 
	C407.526947,608.008423 407.705902,606.193665 407.493683,604.425842 
	C406.832916,598.921143 408.476929,595.141418 414.200806,593.278259 
	C415.351196,592.903809 416.229431,589.893311 416.240631,588.091980 
	C416.385284,564.766235 416.369446,541.439270 416.355652,518.112671 
	C416.340271,492.117981 416.235504,466.123138 416.312653,440.128784 
	C416.322052,436.959076 415.899963,434.687103 412.486359,433.644379 
	C408.364532,432.385315 406.888580,429.411407 407.342010,425.154083 
	C407.798889,420.864288 407.577087,416.933136 402.053528,415.595398 
	C400.813232,415.295013 399.495148,412.899323 399.274170,411.319794 
	C398.839905,408.215881 398.724640,404.925598 399.313232,401.873596 
	C399.666321,400.042999 401.291077,398.073700 402.894470,396.955963 
	C405.462219,395.165924 408.486847,394.031342 411.590820,392.323608 
M443.334869,448.254700 
	C437.347137,445.301758 431.359375,442.348816 424.477997,438.955200 
	C424.477997,455.906921 424.474060,471.543427 424.478790,487.179932 
	C424.489441,522.481323 424.465057,557.782837 424.623840,593.083557 
	C424.632538,595.019348 425.642456,597.852478 427.105713,598.723450 
	C433.382751,602.460266 439.959259,605.711182 446.540070,608.905518 
	C447.777191,609.506042 449.768646,609.551147 451.008575,608.978699 
	C457.195953,606.121887 463.177856,602.817993 469.379120,599.994263 
	C472.414185,598.612244 473.267181,596.749023 473.260284,593.485168 
	C473.174042,552.685852 473.248901,511.886200 473.278381,471.086609 
	C473.286041,460.496643 473.279541,449.906677 473.279541,438.596832 
	C466.318268,442.003418 459.989685,444.868500 453.898926,448.172089 
	C450.511017,450.009613 447.414032,450.548950 443.334869,448.254700 
M482.537262,627.004639 
	C491.925018,622.325195 491.925018,622.325195 490.682983,614.352295 
	C478.577209,620.510254 466.404480,626.506104 454.441620,632.894897 
	C450.309937,635.101501 447.019775,635.053467 442.868530,632.814819 
	C431.247894,626.548218 419.359344,620.778503 407.576508,614.812805 
	C407.130188,615.103088 406.683899,615.393372 406.237579,615.683655 
	C407.272888,618.331970 407.549011,622.328674 409.467285,623.408813 
	C421.466339,630.164856 433.785400,636.363831 446.133484,642.474609 
	C447.721527,643.260437 450.393829,643.100891 452.047058,642.305359 
	C462.068542,637.483154 471.939941,632.348999 482.537262,627.004639 
M415.265625,607.901184 
	C415.826172,608.666382 416.218536,609.748596 416.972778,610.148682 
	C426.959229,615.446594 436.957977,620.726074 447.074371,625.767883 
	C448.224884,626.341248 450.286163,625.815308 451.622162,625.170959 
	C460.603455,620.839233 469.365326,616.024963 478.483368,612.015381 
	C483.477631,609.819275 483.918854,606.792114 482.442444,602.085449 
	C473.602081,606.557129 464.833649,610.575562 456.502411,615.355957 
	C451.127563,618.440002 446.725739,618.645874 441.278107,615.393494 
	C433.060944,610.487549 424.318268,606.461914 415.227814,601.767151 
	C415.227814,603.919189 415.227814,605.514160 415.265625,607.901184 
z"/>
<path fill="#F1C105" opacity="1.000000" stroke="none" 
	d="
M945.749390,422.452942 
	C948.758728,420.926422 951.768066,419.399933 955.459717,418.071594 
	C959.089539,419.777161 962.158936,421.090515 964.951355,422.844727 
	C967.950317,424.728729 970.472961,424.637939 973.597717,422.887604 
	C980.673035,418.924377 987.997986,415.408508 995.200317,411.669952 
	C1000.384216,408.979126 1005.534119,406.222565 1011.557129,403.042297 
	C1006.650391,400.581268 1002.701172,398.600433 998.751953,396.619629 
	C1001.458374,395.088135 1004.164795,393.556671 1007.159668,391.992737 
	C1008.123840,392.425323 1008.737793,393.117828 1009.484680,393.320618 
	C1018.149231,395.673309 1020.665649,401.429474 1019.506104,409.921417 
	C1019.039673,413.337311 1018.065063,415.808594 1014.832458,416.711945 
	C1011.287048,417.702606 1010.635132,420.047363 1011.054504,423.122803 
	C1011.790955,428.522858 1010.374939,432.469818 1004.725281,434.512939 
	C1003.511047,434.952057 1002.433960,437.559204 1002.401855,439.189484 
	C1002.185486,450.182220 1002.259583,461.180817 1002.254517,472.177490 
	C1002.237122,510.166504 1002.273682,548.155701 1002.143433,586.144287 
	C1002.129211,590.291199 1002.446228,593.287964 1007.196167,594.857788 
	C1008.967346,595.443237 1010.414978,598.689819 1010.929565,600.967163 
	C1011.567261,603.789307 1011.082336,606.864990 1011.082336,609.831177 
	C1011.565125,609.483032 1012.047974,609.134888 1012.530762,608.786743 
	C1014.807922,610.863708 1018.443176,612.578064 1019.112427,615.084351 
	C1021.281677,623.208496 1019.718689,627.176086 1014.786926,629.721191 
	C1001.924194,636.359314 988.976562,642.835266 976.176208,649.590759 
	C971.630005,651.989990 967.530212,652.095581 962.948364,649.698059 
	C950.122070,642.986267 937.266113,636.315002 924.226624,630.032959 
	C916.676453,626.395508 919.814392,619.967590 920.020508,614.722473 
	C920.104614,612.584473 924.021179,610.597107 926.862061,609.131348 
	C928.544617,602.937134 925.469604,593.784058 937.050903,593.246643 
	C937.050903,580.294800 937.042725,567.813293 937.052490,555.331787 
	C937.081421,518.176636 936.962402,481.020020 937.303406,443.867676 
	C937.360168,437.684235 936.220886,433.286377 929.835327,430.816101 
	C932.158203,429.065887 934.769226,427.595551 937.992065,426.340515 
	C947.859070,431.115082 957.056946,435.798187 966.420044,440.123749 
	C968.184875,440.939056 970.922485,441.037598 972.673584,440.258514 
	C981.184937,436.471436 989.471558,432.183319 997.920776,428.250977 
	C1004.062317,425.392670 1004.684998,424.264740 1002.725342,417.439484 
	C993.075073,422.312744 983.371277,427.059204 973.832336,432.116455 
	C970.651367,433.802948 968.037842,433.675507 964.955322,432.041626 
	C958.634888,428.691559 952.160400,425.632050 945.749390,422.452942 
M994.044800,518.500000 
	C994.044800,492.101166 994.044800,465.702301 994.044800,438.636108 
	C987.568909,441.824463 981.629272,444.411377 976.035217,447.603821 
	C971.061035,450.442474 966.736206,449.867645 962.013245,447.119080 
	C956.888672,444.136841 951.475342,441.650848 945.914062,438.808441 
	C945.690613,439.999451 945.469421,440.628754 945.469116,441.258179 
	C945.444824,492.413666 945.412292,543.569214 945.553772,594.724304 
	C945.557922,596.238403 947.057495,598.367554 948.453979,599.151001 
	C954.396667,602.484985 960.484314,605.596008 966.701721,608.380676 
	C968.331421,609.110718 970.867615,608.947021 972.556335,608.208252 
	C978.191895,605.742798 983.488464,602.468323 989.194336,600.209717 
	C993.344543,598.566956 994.246887,596.199341 994.204407,591.984924 
	C993.961121,567.825195 994.059204,543.661987 994.044800,518.500000 
M1011.904541,616.184753 
	C1010.971985,615.987549 1009.809631,615.328857 1009.141113,615.661804 
	C997.377563,621.520325 985.758850,627.678467 973.884766,633.298279 
	C971.586853,634.385803 967.945557,634.362061 965.605591,633.320190 
	C957.562073,629.738525 949.836121,625.447510 941.958923,621.486877 
	C937.317383,619.153137 932.618835,616.932617 927.945984,614.661133 
	C928.385498,618.148926 925.199097,621.677673 929.844177,623.923706 
	C941.677490,629.645630 953.370117,635.664734 965.023865,641.747375 
	C968.306030,643.460510 971.145264,643.483032 974.407104,641.770996 
	C985.159912,636.127808 995.900818,630.438965 1006.877686,625.257935 
	C1010.815857,623.399170 1012.576172,621.176208 1011.904541,616.184753 
M952.417053,618.010254 
	C956.562012,620.114563 960.793030,622.068115 964.824585,624.370911 
	C968.038086,626.206482 970.797729,626.132874 974.105347,624.367310 
	C982.008484,620.148682 989.931641,615.851135 998.220032,612.512024 
	C1003.612549,610.339417 1004.557190,607.272339 1003.203857,602.041504 
	C995.848694,605.714844 988.284485,608.560852 981.778992,612.969177 
	C972.960815,618.944763 965.300720,618.395386 956.683655,612.721497 
	C950.322266,608.532776 943.101990,605.648499 936.239807,602.170593 
	C934.647095,607.576111 936.338989,610.545471 941.058960,612.345825 
	C944.761292,613.757935 948.190369,615.886597 952.417053,618.010254 
z"/>
<path fill="#F1C105" opacity="1.000000" stroke="none" 
	d="
M889.073120,493.845367 
	C876.646729,487.178619 864.553345,480.676208 852.406067,474.144836 
	C858.307495,468.638855 863.467651,469.515625 869.767761,473.030640 
	C889.188538,483.866180 908.982910,494.034637 928.679199,504.372650 
	C936.151367,508.294556 936.209778,508.183258 934.455078,517.404480 
	C919.350281,509.560272 904.378235,501.784973 889.073120,493.845367 
z"/>
<path fill="#F1C205" opacity="1.000000" stroke="none" 
	d="
M522.093933,488.225281 
	C531.688049,483.193909 541.238892,478.793274 550.116577,473.303894 
	C556.349304,469.449951 561.613647,469.259216 567.841858,474.262268 
	C540.081116,488.738831 512.526672,503.107849 484.790131,517.571777 
	C483.349487,508.372284 483.359039,508.390686 490.391998,504.738708 
	C500.856964,499.304688 511.306854,493.841614 522.093933,488.225281 
z"/>
</svg>