<svg xmlns="http://www.w3.org/2000/svg" viewBox="0 0 1122 1402">
<path fill="#F3F3F4" opacity="1.000000" stroke="none" 
	d="
M721.090942,1091.010254 
	C670.888916,1122.899414 620.961304,1154.545654 571.171326,1186.407104 
	C565.934814,1189.757935 561.710205,1189.857666 556.535828,1186.538574 
	C511.259705,1157.497437 465.955719,1128.498535 420.530334,1099.691650 
	C345.993042,1052.423218 271.364441,1005.298828 196.760788,958.135193 
	C180.710999,947.988586 164.606308,937.928711 148.521179,927.837952 
	C142.116486,923.820068 142.100372,918.243164 148.434555,914.212830 
	C202.796265,879.622498 257.146942,845.014832 311.504578,810.418152 
	C316.130402,807.473877 320.782532,804.571045 326.076385,801.237183 
	C323.052765,799.256287 320.490204,797.517212 317.869965,795.869812 
	C261.355591,760.336914 204.837967,724.809143 148.310684,689.296753 
	C142.224396,685.473206 142.161636,679.944702 148.340057,676.027893 
	C189.976028,649.632141 231.640701,623.281677 273.274628,596.882690 
	C290.710205,585.827148 308.093414,574.689026 326.110321,563.199463 
	C319.550415,559.026611 313.308960,555.026917 307.038879,551.072571 
	C264.509186,524.250610 221.976334,497.433716 179.437515,470.626282 
	C169.291611,464.232483 159.121765,457.876678 148.958405,451.510590 
	C142.015701,447.161896 141.960709,441.639160 148.871109,437.256256 
	C205.403534,401.400757 261.901184,365.490143 318.490723,329.725006 
	C380.284454,290.670776 442.157410,251.741791 504.012878,212.785355 
	C521.343628,201.870483 538.811951,191.171844 556.051758,180.116104 
	C561.353027,176.716400 565.821289,176.696289 571.186951,180.073425 
	C628.124817,215.910309 685.240540,251.464966 742.154480,287.339569 
	C808.217102,328.980804 874.129700,370.859924 940.101013,412.646057 
	C952.759888,420.664185 965.407227,428.701080 978.024902,436.783844 
	C985.699951,441.700439 985.704956,447.005707 977.911011,451.918793 
	C933.818665,479.713379 889.683289,507.439514 845.575562,535.209717 
	C832.196899,543.632935 818.856445,552.116943 805.510071,560.591431 
	C804.413574,561.287659 803.406616,562.125000 801.876221,563.251465 
	C807.811096,567.015686 813.351257,570.521179 818.883179,574.039551 
	C870.741638,607.022461 922.599426,640.006714 974.453552,672.996460 
	C976.139221,674.068848 977.807312,675.172180 979.444824,676.316589 
	C985.355713,680.447937 985.328918,685.357300 979.217102,689.214661 
	C959.240479,701.822205 939.204285,714.335327 919.210754,726.916138 
	C880.312622,751.392761 841.427917,775.890625 801.801819,800.843140 
	C803.780029,802.223633 805.289001,803.359070 806.876038,804.372375 
	C863.005798,840.206665 919.059387,876.161743 975.354370,911.734741 
	C985.754150,918.306519 986.782715,923.298889 975.214172,930.400208 
	C939.590454,952.267456 904.447876,974.918213 869.108887,997.249512 
	C832.504089,1020.380676 795.877136,1043.476685 759.283508,1066.625610 
	C746.620850,1074.635864 734.028992,1082.758179 721.090942,1091.010254 
M222.708359,404.143127 
	C201.651871,417.439728 180.595383,430.736328 159.063736,444.332977 
	C161.283203,445.769989 162.797729,446.774902 164.335602,447.742706 
	C186.326355,461.581146 208.316177,475.420990 230.314209,489.247833 
	C281.186218,521.223328 332.163086,553.033325 382.910950,585.204651 
	C441.973267,622.646912 500.857483,660.370422 559.729614,698.111389 
	C562.931519,700.164062 564.997375,700.025635 568.077820,698.053040 
	C616.029541,667.347046 664.028564,636.714478 712.090698,606.181580 
	C753.541199,579.848877 795.079407,553.654236 836.589844,527.415955 
	C875.586853,502.766357 914.594543,478.133606 953.608215,453.510315 
	C958.327148,450.531982 963.112305,447.658478 968.351807,444.438354 
	C966.404358,443.075287 965.100403,442.084717 963.723022,441.209869 
	C922.674194,415.138611 881.647705,389.032166 840.554932,363.030426 
	C800.731567,337.831940 760.874268,312.686676 720.967590,287.620331 
	C672.027405,256.879791 622.879578,226.465912 574.184082,195.343643 
	C566.260742,190.279663 560.999512,190.550735 553.267700,195.471329 
	C499.311920,229.809372 444.948334,263.505676 390.852081,297.624329 
	C334.937469,332.889862 279.177399,368.400482 222.708359,404.143127 
M469.973358,1117.579590 
	C500.152771,1136.830322 530.361206,1156.036011 560.462891,1175.407471 
	C563.199097,1177.168335 565.007812,1176.910889 567.525696,1175.256592 
	C582.414734,1165.473511 597.326294,1155.720825 612.367249,1146.173706 
	C682.792969,1101.472046 753.228027,1056.784790 823.730408,1012.204041 
	C869.330627,983.369690 915.054138,954.730286 960.716125,925.993591 
	C963.147400,924.463562 965.519958,922.840210 968.352173,920.975586 
	C961.832703,916.823730 956.078918,913.166809 950.332214,909.498718 
	C898.549561,876.446106 846.753723,843.413940 795.024170,810.278381 
	C792.129700,808.424255 790.005127,808.271301 787.040344,810.155518 
	C757.816162,828.728333 728.439331,847.061035 699.226501,865.651733 
	C655.959167,893.186646 612.784363,920.866943 569.589355,948.515320 
	C565.824524,950.925171 562.271057,951.093811 558.424377,948.635132 
	C523.904419,926.570679 489.375305,904.520508 454.798370,882.545593 
	C416.726501,858.349670 378.589294,834.256470 340.526886,810.045654 
	C338.032410,808.458862 336.178467,808.041748 333.447327,809.822693 
	C315.877045,821.280151 298.192627,832.563354 280.507294,843.843506 
	C249.071838,863.893921 217.607544,883.899231 186.158630,903.928528 
	C177.405807,909.503113 168.664780,915.096191 159.512802,920.939697 
	C161.341537,922.183044 162.531845,923.045654 163.772781,923.828003 
	C195.467636,943.807556 227.203232,963.722717 258.859772,983.762878 
	C329.053436,1028.198853 399.207886,1072.696899 469.973358,1117.579590 
M717.107178,616.491699 
	C668.118713,647.725952 619.119690,678.943665 570.158936,710.221252 
	C565.443115,713.233948 561.128662,712.636353 556.679626,709.790405 
	C512.787659,681.713318 468.910492,653.612915 424.966583,625.617310 
	C396.873566,607.719849 368.661682,590.009033 340.547089,572.145325 
	C337.896759,570.461365 335.878174,570.126465 333.032837,572.109436 
	C326.345459,576.769897 319.327728,580.956177 312.446564,585.338806 
	C276.620300,608.156616 240.811188,631.001465 204.961319,653.782104 
	C189.961243,663.313843 174.875214,672.710266 159.468414,682.394348 
	C161.338425,683.669312 162.673019,684.644775 164.069626,685.521545 
	C180.548965,695.866455 197.052994,706.172180 213.520950,716.535217 
	C268.203918,750.946228 322.962891,785.237549 377.526794,819.836548 
	C437.837860,858.079895 498.002899,896.554382 558.099426,935.133850 
	C562.616699,938.033691 565.555420,937.769348 569.913513,934.939087 
	C607.057495,910.816406 644.294861,886.834595 681.671997,863.074463 
	C721.292786,837.888062 761.096985,812.990234 800.821350,787.966919 
	C851.250793,756.200012 901.682251,724.436279 952.107605,692.662903 
	C957.359436,689.353638 962.576782,685.989624 968.069397,682.485535 
	C965.983582,681.101318 964.341125,679.970581 962.659546,678.901306 
	C906.720459,643.333984 850.762390,607.796265 794.880127,572.140015 
	C792.090698,570.360168 790.175842,570.275757 787.386047,572.055054 
	C764.222229,586.828369 740.958069,601.444336 717.107178,616.491699 
z"/>
<path fill="#45BA3E" opacity="1.000000" stroke="none" 
	d="
M274.600983,464.327362 
	C267.071136,459.678192 259.809692,455.287292 252.662140,450.718140 
	C247.044189,447.126862 247.076721,441.514343 252.726624,437.953339 
	C277.080994,422.603516 301.466614,407.303192 325.858551,392.013031 
	C329.771484,389.560242 333.513733,390.184723 335.399597,393.442474 
	C337.419220,396.931396 336.269714,400.409271 332.063751,403.038879 
	C312.592896,415.212341 293.099579,427.349884 273.616455,439.503754 
	C271.387848,440.894012 269.172699,442.305878 266.113831,444.236206 
	C274.790924,449.759094 282.808228,454.931732 290.895050,459.993378 
	C304.155029,468.292969 317.460358,476.520050 330.745575,484.779327 
	C331.593658,485.306580 332.458374,485.811981 333.272705,486.387848 
	C336.727844,488.831085 337.294891,492.120941 335.263763,495.560211 
	C333.258759,498.955231 329.902802,498.806488 326.929108,497.143341 
	C321.705597,494.221985 316.666382,490.965210 311.601105,487.767944 
	C299.357880,480.039703 287.144104,472.264832 274.600983,464.327362 
z"/>
<path fill="#45BA3D" opacity="1.000000" stroke="none" 
	d="
M874.960571,438.080200 
	C880.389343,443.272064 879.895691,447.289764 873.979675,451.011627 
	C850.443115,465.818726 826.953247,480.700195 803.447449,495.556244 
	C802.603027,496.089966 801.820984,496.747040 800.927185,497.173370 
	C797.758972,498.684570 794.720581,498.754761 792.490662,495.609070 
	C790.164429,492.327606 790.780762,489.122620 793.880615,486.818878 
	C797.344604,484.244476 801.125244,482.092529 804.792480,479.795837 
	C823.411438,468.135345 842.038452,456.487579 861.400024,444.373962 
	C858.062683,442.161224 855.278809,440.216553 852.400635,438.423187 
	C833.746582,426.799896 815.072327,415.209137 796.403137,403.610138 
	C795.837585,403.258728 795.227905,402.972717 794.686279,402.589203 
	C791.171143,400.100159 790.110535,396.176422 792.287781,393.061798 
	C794.865234,389.374634 798.097595,389.838776 801.456604,391.948883 
	C810.479492,397.616943 819.500244,403.288361 828.525146,408.953278 
	C843.897217,418.602264 859.271790,428.247345 874.960571,438.080200 
z"/>
<path fill="#E32228" opacity="1.000000" stroke="none" 
	d="
M296.906982,901.870850 
	C286.952606,908.169739 277.304138,914.277039 266.958282,920.825806 
	C279.381012,928.686157 291.129822,936.161316 302.921509,943.568115 
	C312.503326,949.586853 322.140076,955.518188 331.745514,961.499451 
	C336.127441,964.228027 337.468018,967.899536 335.408508,971.435852 
	C333.339691,974.988220 329.908325,975.227478 325.045654,972.209961 
	C301.152130,957.382629 277.257050,942.557800 253.352066,927.749023 
	C247.236298,923.960327 246.890976,918.450562 252.635895,914.840759 
	C276.867035,899.615295 301.109955,884.408569 325.350586,869.198242 
	C330.105743,866.214478 333.115387,866.445557 335.254272,869.936096 
	C337.489014,873.583069 336.320953,877.110535 331.874512,879.910278 
	C320.329163,887.180176 308.767853,894.424683 296.906982,901.870850 
z"/>
<path fill="#E32227" opacity="1.000000" stroke="none" 
	d="
M816.029480,949.097900 
	C830.939941,939.701843 845.541260,930.495178 860.714355,920.928040 
	C855.540466,917.521118 850.925720,914.368469 846.200317,911.391357 
	C829.723450,901.010559 813.206787,890.692993 796.711548,880.341248 
	C795.586426,879.635254 794.386902,878.978271 793.440125,878.070801 
	C790.756104,875.498291 790.455139,872.474304 792.685608,869.558167 
	C794.758484,866.847961 797.584106,866.138855 800.625305,868.035278 
	C807.685974,872.438171 814.684509,876.940552 821.728638,881.370117 
	C838.918579,892.179565 856.104614,902.995483 873.324463,913.757141 
	C880.665955,918.345276 880.651855,923.486572 873.308716,928.050964 
	C849.418335,942.900818 825.541992,957.773560 801.718750,972.730652 
	C798.165161,974.961731 795.145996,975.046387 792.567932,971.605347 
	C790.236206,968.492981 791.116821,964.626099 794.917908,962.171692 
	C801.768738,957.747864 808.777588,953.568787 816.029480,949.097900 
z"/>
<path fill="#F5D712" opacity="1.000000" stroke="none" 
	d="
M331.547791,629.144775 
	C338.050598,633.155151 337.901581,637.804199 331.569244,641.755859 
	C309.967682,655.236450 288.377350,668.734985 266.224365,682.575562 
	C271.314850,685.765808 276.022522,688.730164 280.743896,691.672485 
	C297.685913,702.230469 314.634033,712.778625 331.576477,723.335876 
	C336.069641,726.135742 337.486359,729.784973 335.433502,733.204712 
	C333.352692,736.671021 329.910339,736.948120 325.002899,733.893860 
	C300.990997,718.949524 276.992157,703.984070 252.999649,689.008545 
	C247.108215,685.331238 247.017868,680.247314 252.879791,676.544434 
	C277.088623,661.252136 301.320709,645.996399 325.604858,630.824158 
	C327.200470,629.827271 329.302216,629.640442 331.547791,629.144775 
z"/>
<path fill="#F4D714" opacity="1.000000" stroke="none" 
	d="
M861.750916,668.313232 
	C866.294128,671.152527 870.625000,673.658203 874.758179,676.455872 
	C880.354004,680.243774 880.061768,685.428528 874.287476,689.049927 
	C850.464966,703.990662 826.656799,718.954346 802.848694,733.918152 
	C798.099609,736.902954 794.680725,736.677185 792.399841,733.174805 
	C790.200439,729.797485 791.262207,726.531494 795.745667,723.719360 
	C811.533386,713.817505 827.366333,703.987610 843.175964,694.120667 
	C849.212097,690.353394 855.231689,686.559570 861.764282,682.460815 
	C839.996399,668.986694 818.767700,655.844727 797.535339,642.708618 
	C796.544128,642.095337 795.470337,641.605408 794.521606,640.935364 
	C791.156738,638.559204 790.093994,635.392700 792.348145,631.857727 
	C794.641724,628.260864 797.965942,628.044922 801.461426,630.246094 
	C811.326538,636.458374 821.168213,642.707886 831.026306,648.931396 
	C841.163269,655.331116 851.308716,661.717529 861.750916,668.313232 
z"/>
</svg>